<svg width="125" height="38" viewBox="0 0 125 38" fill="none" xmlns="http://www.w3.org/2000/svg">
<g clip-path="url(#clip0_82_5088)">
<path d="M125 4.48093C124.969 3.88241 124.719 3.31334 124.293 2.87352C124.068 2.60762 123.781 2.39549 123.455 2.25397C123.129 2.11244 122.773 2.0454 122.415 2.05818H117.258C117.096 2.05926 116.936 2.09302 116.789 2.15726C116.642 2.2215 116.511 2.31477 116.404 2.43092C116.287 2.54016 116.195 2.6707 116.132 2.81476C116.069 2.95883 116.037 3.11349 116.038 3.26956C116.029 3.61372 116.16 3.94781 116.404 4.20137C116.551 4.33046 116.725 4.42917 116.913 4.49131C117.102 4.55344 117.302 4.57767 117.501 4.56247C117.805 4.56379 118.106 4.615 118.392 4.71388C118.682 4.78967 118.954 4.91605 119.196 5.08662C119.412 5.25401 119.6 5.45015 119.757 5.66901C119.913 5.87812 120.005 6.12379 120.025 6.37953C120.099 6.6775 120.14 6.98199 120.147 7.28806C120.147 7.6142 120.147 7.96362 120.147 8.33635V35.5923H125.024L125 4.48093Z" fill="white"/>
<path d="M112.795 15.0689C112.766 14.4699 112.516 13.9002 112.088 13.4615C111.864 13.1972 111.579 12.9861 111.255 12.8446C110.932 12.7031 110.578 12.6352 110.222 12.6462H105.248C105.09 12.6475 104.934 12.6816 104.79 12.7459C104.647 12.8102 104.521 12.9034 104.419 13.0189C104.204 13.2509 104.083 13.5482 104.077 13.8575C104.072 14.204 104.193 14.5414 104.419 14.8127C104.554 14.9526 104.721 15.0611 104.907 15.1297C105.093 15.1984 105.293 15.2254 105.492 15.2087C105.773 15.2048 106.053 15.2441 106.321 15.3252C106.58 15.4085 106.827 15.5261 107.052 15.6746C107.265 15.8449 107.453 16.0407 107.613 16.257C107.763 16.4729 107.856 16.721 107.881 16.9792C107.949 17.2781 107.99 17.5821 108.003 17.8877C108.003 18.2138 108.003 18.5749 108.003 18.9826V23.9096C107.999 24.9061 107.835 25.8962 107.516 26.8449C107.205 27.8024 106.745 28.7095 106.15 29.5355C105.578 30.3317 104.839 31.006 103.98 31.5156C103.114 32.0316 102.11 32.2984 101.09 32.2844C100.247 32.3206 99.408 32.1523 98.6514 31.7952C98.0876 31.5008 97.6098 31.0764 97.2615 30.5605C96.9417 30.0298 96.7345 29.444 96.6519 28.8366C96.5744 28.2181 96.5337 27.5959 96.5299 26.973V15.0689C96.5012 14.4699 96.2506 13.9002 95.8228 13.4615C95.5988 13.1972 95.3139 12.9861 94.9902 12.8446C94.6665 12.7031 94.313 12.6352 93.9573 12.6462H88.9948C88.8362 12.6451 88.6794 12.6781 88.536 12.7426C88.3925 12.8071 88.266 12.9015 88.1657 13.0189C87.9466 13.2481 87.8248 13.5471 87.8243 13.8575C87.8142 14.2048 87.9354 14.5439 88.1657 14.8127C88.2954 14.9562 88.4599 15.0673 88.6447 15.1363C88.8296 15.2053 89.0293 15.2301 89.2265 15.2087C89.5076 15.2048 89.7875 15.2441 90.0556 15.3252C90.3174 15.4036 90.5644 15.5216 90.7872 15.6746C90.9995 15.8449 91.188 16.0407 91.348 16.257C91.4984 16.4729 91.5905 16.721 91.6162 16.9792C91.6839 17.2781 91.7247 17.5821 91.7382 17.8877C91.7382 18.2138 91.7382 18.5749 91.7382 18.9826V26.973C91.5361 29.3923 92.3128 31.7936 93.9085 33.6821C94.721 34.482 95.7051 35.1044 96.7932 35.5065C97.8813 35.9086 99.0477 36.081 100.212 36.0117C101.281 36.0295 102.347 35.888 103.37 35.5924C104.182 35.3592 104.955 35.0139 105.662 34.5674C106.218 34.222 106.719 33.8022 107.15 33.321C107.47 32.9576 107.755 32.5678 108.003 32.1563V35.5458H112.771L112.795 15.0689Z" fill="white"/>
<path d="M85.4223 19.2389C84.8559 17.8276 83.9844 16.5463 82.8646 15.4786C81.7448 14.4109 80.4019 13.5807 78.9236 13.0422C77.3713 12.4571 75.7152 12.1644 74.0465 12.1803C72.29 12.155 70.5482 12.4886 68.9377 13.1587C67.4971 13.7722 66.2027 14.66 65.1336 15.7678C64.0632 16.8784 63.2344 18.181 62.695 19.6C62.1392 21.0956 61.8587 22.672 61.8659 24.2591C61.833 26.0031 62.1733 27.7352 62.8658 29.3492C63.4849 30.7522 64.4072 32.0144 65.5725 33.0532C66.6819 34.0473 67.9992 34.8055 69.4376 35.2779C70.9342 35.7786 72.5096 36.0308 74.0953 36.0234C75.7601 36.0459 77.4145 35.7693 78.9724 35.2081C80.4179 34.7069 81.7325 33.9121 82.8253 32.8785C83.9467 31.8173 84.8304 30.5491 85.4223 29.1512C86.0782 27.5853 86.4014 25.9105 86.3734 24.2241C86.405 22.5186 86.0817 20.8241 85.4223 19.2389ZM80.6794 27.5321C80.4158 28.5306 79.9701 29.477 79.3626 30.3276C78.7965 31.1124 78.0605 31.7718 77.2044 32.2612C76.2898 32.7529 75.2543 33.0022 74.205 32.9833C73.0955 33.0118 71.9965 32.7714 71.0105 32.2844C70.1284 31.8216 69.3725 31.1673 68.8036 30.3742C68.1943 29.5274 67.7559 28.5793 67.5112 27.5787C67.2274 26.4853 67.0881 25.3623 67.0966 24.2358C67.0843 23.0592 67.2236 21.8856 67.5112 20.7415C67.7448 19.7236 68.1571 18.7509 68.7305 17.8644C69.2926 17.0703 70.0291 16.4025 70.8886 15.9076C71.8283 15.3891 72.9008 15.1309 73.9855 15.1621C75.0843 15.1376 76.1687 15.4036 77.1191 15.9309C78.0102 16.4368 78.7691 17.1299 79.3381 17.9576C79.9394 18.8327 80.3844 19.797 80.655 20.8113C80.9501 21.8992 81.0976 23.0188 81.0939 24.1426C81.1128 25.285 80.9734 26.4247 80.6794 27.5321Z" fill="white"/>
<path d="M45.5643 35.5341H50.3804V24.1892C50.3804 21.2073 51.1933 19.1457 52.819 18.0042C54.4447 16.8627 56.9117 16.521 60.22 16.9791V12.32H57.5376C56.5144 12.3014 55.4968 12.4673 54.5382 12.8092C53.7535 13.1059 53.0119 13.4974 52.3313 13.974C51.7902 14.3425 51.3059 14.7816 50.8925 15.2786C50.6442 15.5516 50.4537 15.8681 50.3316 16.2104V14.5331C50.2347 14.0818 49.9864 13.6729 49.6245 13.3683C49.3861 13.1223 49.0949 12.9284 48.7709 12.7997C48.4468 12.6711 48.0975 12.6107 47.7468 12.6229H42.5893C42.4275 12.624 42.2678 12.6577 42.1207 12.722C41.9736 12.7862 41.8425 12.8795 41.7358 12.9956C41.5056 13.2199 41.3747 13.5202 41.37 13.8342C41.3641 14.1919 41.494 14.5395 41.7358 14.8127C41.873 14.958 42.0433 15.0713 42.2335 15.144C42.4237 15.2167 42.6288 15.2468 42.8331 15.232C43.138 15.2313 43.4416 15.2705 43.7354 15.3485C44.0158 15.4169 44.2862 15.5186 44.5401 15.6513C44.7495 15.8245 44.9377 16.0199 45.101 16.2337C45.2514 16.4496 45.3435 16.6977 45.3692 16.9559C45.4309 17.2558 45.4716 17.5593 45.4912 17.8644C45.4912 18.1905 45.4912 18.5516 45.4912 18.9593L45.5643 35.5341Z" fill="white"/>
<path d="M31.3476 5.6457C31.3461 6.06558 31.4339 6.48136 31.6058 6.8678C31.7777 7.25425 32.0299 7.60328 32.3473 7.89372C32.6604 8.19694 33.0334 8.43772 33.4447 8.60205C33.856 8.76639 34.2974 8.85102 34.7432 8.85102C35.1891 8.85102 35.6304 8.76639 36.0417 8.60205C36.453 8.43772 36.826 8.19694 37.1391 7.89372C37.4644 7.60792 37.7236 7.26029 37.9 6.87315C38.0763 6.48601 38.166 6.06791 38.1633 5.6457C38.1296 4.79737 37.7592 3.99308 37.1275 3.39604C36.4957 2.79901 35.6498 2.45396 34.7615 2.43091C33.8682 2.44259 33.0143 2.78362 32.3781 3.38271C31.7418 3.98181 31.3726 4.79262 31.3476 5.6457Z" fill="white"/>
<path d="M37.6999 35.534V15.0687C37.6705 14.4721 37.4248 13.9039 37.0049 13.4614C36.7779 13.1975 36.4907 12.9868 36.1652 12.8455C35.8397 12.7041 35.4847 12.6359 35.1273 12.646H30.2502C29.8933 12.6586 29.5524 12.7905 29.287 13.0187C29.1547 13.1208 29.0463 13.2481 28.9686 13.3925C28.8909 13.5369 28.8457 13.6953 28.8358 13.8574C28.8299 14.215 28.9598 14.5626 29.2016 14.8358C29.3377 14.9825 29.5077 15.0969 29.6983 15.1697C29.8888 15.2425 30.0945 15.2717 30.2989 15.2551C30.6014 15.2579 30.9016 15.305 31.189 15.3949C31.4627 15.473 31.7314 15.5663 31.9937 15.6744C32.2103 15.799 32.395 15.9682 32.5342 16.1697C32.6734 16.3713 32.7638 16.6 32.7985 16.8392C32.8978 17.6431 32.9385 18.4527 32.9204 19.262V35.4874L37.6999 35.534Z" fill="white"/>
<path d="M1.69478 5.20321C2.2297 5.29997 2.71259 5.57182 3.06036 5.97197C3.48711 6.42624 3.88947 6.88051 4.27964 7.34642C7.24654 11.5862 10.2175 15.8183 13.1925 20.0425V35.5342H18.1916V20.0425L29.0675 4.48105C29.0675 4.39952 29.1406 4.30634 29.1894 4.21316C29.265 4.00379 29.29 3.7808 29.2626 3.56088C29.2065 3.31665 29.0698 3.09611 28.8724 2.93189C28.515 2.69893 28.084 2.59188 27.6531 2.62905H25.5072L16.1066 15.9774L6.96205 2.62905H1.3046C0.981232 2.62905 0.671122 2.75177 0.442464 2.97021C0.213806 3.18865 0.085329 3.48491 0.085329 3.79383C0.0805322 4.15337 0.215165 4.50188 0.463301 4.77225C0.800108 5.06247 1.24143 5.21691 1.69478 5.20321Z" fill="white"/>
</g>
<defs>
<clipPath id="clip0_82_5088">
<rect width="125" height="34" fill="white" transform="translate(0 2)"/>
</clipPath>
</defs>
</svg>
