<svg width="24" height="24" viewBox="0 0 24 24" fill="none" xmlns="http://www.w3.org/2000/svg">
<path fill-rule="evenodd" clip-rule="evenodd" d="M8.5 4.92587V12.0247V22.2378H22.5V1.63175L8.5 4.92587ZM7 23.7378V23.7378H8.5H23C23.5523 23.7378 24 23.2901 24 22.7378V1.00045C24 0.355596 23.3987 -0.120667 22.771 0.0270291L7.77096 3.55644C7.31924 3.66273 7 4.06581 7 4.52986V11.1201L0.752996 12.7125C0.310011 12.8254 0 13.2244 0 13.6815V22.7378C0 23.2901 0.447715 23.7378 1 23.7378H7ZM7 22.2378V12.6681L1.5 14.0701V22.2378H7ZM11.5 11.8286H13V14.0104H11.5V11.8286ZM13 7.73779H11.5V9.91961H13V7.73779ZM11.5 15.7378H13V17.9196H11.5V15.7378ZM16.2727 11.8286H14.7727V14.0104H16.2727V11.8286ZM14.7727 7.73779H16.2727V9.91961H14.7727V7.73779ZM16.2727 15.7378H14.7727V17.9196H16.2727V15.7378ZM18.0454 11.8286H19.5454V14.0104H18.0454V11.8286ZM19.5454 7.73779H18.0454V9.91961H19.5454V7.73779ZM18.0454 15.7378H19.5454V17.9196H18.0454V15.7378Z" fill="#333333"/>
</svg>
