<svg width="24" height="24" viewBox="0 0 24 24" fill="none" xmlns="http://www.w3.org/2000/svg">
<path fill-rule="evenodd" clip-rule="evenodd" d="M13.375 2.76924C13.375 3.54831 12.7504 4.16348 12 4.16348C11.2496 4.16348 10.625 3.54831 10.625 2.76924C10.625 1.99017 11.2496 1.375 12 1.375C12.7504 1.375 13.375 1.99017 13.375 2.76924ZM14.75 2.76924C14.75 4.29865 13.5188 5.53848 12 5.53848C10.4812 5.53848 9.25 4.29865 9.25 2.76924C9.25 1.23983 10.4812 0 12 0C13.5188 0 14.75 1.23983 14.75 2.76924ZM13.375 21.2308C13.375 22.0098 12.7504 22.625 12 22.625C11.2496 22.625 10.625 22.0098 10.625 21.2308C10.625 20.4517 11.2496 19.8365 12 19.8365C12.7504 19.8365 13.375 20.4517 13.375 21.2308ZM14.75 21.2308C14.75 22.7602 13.5188 24 12 24C10.4812 24 9.25 22.7602 9.25 21.2308C9.25 19.7014 10.4812 18.4615 12 18.4615C13.5188 18.4615 14.75 19.7014 14.75 21.2308ZM3.75 9.70196C4.50037 9.70196 5.125 9.08679 5.125 8.30772C5.125 7.52865 4.50037 6.91348 3.75 6.91348C2.99963 6.91348 2.375 7.52865 2.375 8.30772C2.375 9.08679 2.99963 9.70196 3.75 9.70196ZM3.75 11.077C5.26878 11.077 6.5 9.83713 6.5 8.30772C6.5 6.77831 5.26878 5.53848 3.75 5.53848C2.23122 5.53848 1 6.77831 1 8.30772C1 9.83713 2.23122 11.077 3.75 11.077ZM5.125 15.6923C5.125 16.4714 4.50037 17.0865 3.75 17.0865C2.99963 17.0865 2.375 16.4714 2.375 15.6923C2.375 14.9132 2.99963 14.298 3.75 14.298C4.50037 14.298 5.125 14.9132 5.125 15.6923ZM6.5 15.6923C6.5 17.2217 5.26878 18.4615 3.75 18.4615C2.23122 18.4615 1 17.2217 1 15.6923C1 14.1629 2.23122 12.923 3.75 12.923C5.26878 12.923 6.5 14.1629 6.5 15.6923ZM20.25 9.70196C21.0004 9.70196 21.625 9.08679 21.625 8.30772C21.625 7.52865 21.0004 6.91348 20.25 6.91348C19.4996 6.91348 18.875 7.52865 18.875 8.30772C18.875 9.08679 19.4996 9.70196 20.25 9.70196ZM20.25 11.077C21.7688 11.077 23 9.83713 23 8.30772C23 6.77831 21.7688 5.53848 20.25 5.53848C18.7312 5.53848 17.5 6.77831 17.5 8.30772C17.5 9.83713 18.7312 11.077 20.25 11.077ZM21.625 15.6923C21.625 16.4714 21.0004 17.0865 20.25 17.0865C19.4996 17.0865 18.875 16.4714 18.875 15.6923C18.875 14.9132 19.4996 14.298 20.25 14.298C21.0004 14.298 21.625 14.9132 21.625 15.6923ZM23 15.6923C23 17.2217 21.7688 18.4615 20.25 18.4615C18.7312 18.4615 17.5 17.2217 17.5 15.6923C17.5 14.1629 18.7312 12.923 20.25 12.923C21.7688 12.923 23 14.1629 23 15.6923Z" fill="#333333"/>
</svg>
