<svg width="24" height="24" viewBox="0 0 24 24" fill="none" xmlns="http://www.w3.org/2000/svg">
<path d="M21.6974 22.0525C21.7668 22.4608 22.1542 22.7356 22.5625 22.6661C22.9709 22.5966 23.2456 22.2093 23.1761 21.8009L21.6974 22.0525ZM15.9712 16.125L16.3326 15.4678L16.3298 15.4663L15.9712 16.125ZM14.3161 13.7241L15.0657 13.7485L15.0661 13.7363V13.7241H14.3161ZM15.0316 12.3491L14.4933 11.8268L14.4874 11.8329L14.4816 11.8391L15.0316 12.3491ZM16.4023 10.0862L16.192 9.36625L15.8136 9.47675L15.6901 9.85108L16.4023 10.0862ZM17.204 8.95256L16.4544 8.92871L16.4533 8.96148L16.4551 8.99421L17.204 8.95256ZM16.773 7.98705H16.023V8.33628L16.2902 8.56106L16.773 7.98705ZM7.68674 7.98705L8.16946 8.56106L8.43674 8.33628V7.98705H7.68674ZM7.25571 8.95256L8.00455 8.99421L8.00637 8.96148L8.00533 8.92871L7.25571 8.95256ZM8.05743 10.0862L8.76983 9.8517L8.64646 9.47687L8.26766 9.36625L8.05743 10.0862ZM9.48416 12.4008L10.0374 11.8945L10.0259 11.8819L10.0138 11.8698L9.48416 12.4008ZM10.1436 13.6724L9.39373 13.6839L9.39387 13.6934L9.39426 13.7029L10.1436 13.6724ZM8.48847 16.125L8.12946 15.4665L8.12885 15.4668L8.48847 16.125ZM1.28321 21.8031C1.21492 22.2116 1.49075 22.5982 1.8993 22.6665C2.30784 22.7347 2.69439 22.4589 2.76269 22.0504L1.28321 21.8031ZM23.1761 21.8009C22.7615 19.3636 21.513 18.0233 20.0899 17.1676C19.4004 16.753 18.6762 16.4553 18.0287 16.1994C17.3586 15.9346 16.7992 15.7243 16.3326 15.4678L15.6099 16.7822C16.182 17.0967 16.8571 17.3493 17.4775 17.5945C18.1205 17.8486 18.743 18.108 19.317 18.4531C20.4208 19.1168 21.3663 20.1062 21.6974 22.0525L23.1761 21.8009ZM16.3298 15.4663C15.6295 15.085 15.3466 14.8243 15.216 14.6203C15.1027 14.4434 15.0501 14.2267 15.0657 13.7485L13.5665 13.6997C13.5475 14.2819 13.5941 14.869 13.9528 15.4292C14.2942 15.9623 14.856 16.3718 15.6126 16.7837L16.3298 15.4663ZM15.0661 13.7241C15.0661 13.7125 15.072 13.6562 15.1177 13.5491C15.1609 13.4478 15.2244 13.3365 15.2978 13.2263C15.3701 13.118 15.4437 13.0229 15.4996 12.9548C15.5272 12.9211 15.5497 12.8951 15.5643 12.8784C15.5716 12.8701 15.577 12.8641 15.58 12.8608C15.5814 12.8592 15.5823 12.8582 15.5826 12.8579C15.5828 12.8577 15.5827 12.8578 15.5825 12.858C15.5825 12.8581 15.5823 12.8582 15.5821 12.8584C15.5821 12.8585 15.582 12.8586 15.5819 12.8587C15.5818 12.8588 15.5817 12.8589 15.5817 12.8589C15.5816 12.859 15.5815 12.8591 15.0316 12.3491C14.4816 11.8391 14.4815 11.8392 14.4814 11.8394C14.4814 11.8394 14.4813 11.8395 14.4812 11.8396C14.4811 11.8398 14.4809 11.8399 14.4807 11.8401C14.4804 11.8405 14.48 11.8409 14.4796 11.8414C14.4787 11.8423 14.4776 11.8435 14.4764 11.8448C14.474 11.8475 14.4709 11.8509 14.4671 11.855C14.4596 11.8633 14.4496 11.8746 14.4373 11.8885C14.4129 11.9164 14.3794 11.9553 14.3399 12.0034C14.2617 12.0988 14.1564 12.2343 14.0498 12.3943C13.8634 12.6738 13.5661 13.1809 13.5661 13.7241H15.0661ZM15.5698 12.8714C16.2708 12.149 16.7989 11.2771 17.1145 10.3213L15.6901 9.85108C15.4456 10.5916 15.0364 11.2671 14.4933 11.8268L15.5698 12.8714ZM16.6125 10.8061C17.0171 10.688 17.3698 10.4364 17.6131 10.0922L16.3885 9.22612C16.3407 9.29367 16.2715 9.34306 16.192 9.36625L16.6125 10.8061ZM17.6131 10.0922C17.8565 9.74811 17.9762 9.33174 17.9528 8.91091L16.4551 8.99421C16.4597 9.07683 16.4362 9.15856 16.3885 9.22612L17.6131 10.0922ZM17.9536 8.97642C17.963 8.68001 17.9051 8.38534 17.7842 8.11456L16.4145 8.72603C16.443 8.78972 16.4566 8.85901 16.4544 8.92871L17.9536 8.97642ZM17.7842 8.11456C17.6634 7.84377 17.4826 7.60391 17.2557 7.41304L16.2902 8.56106C16.3436 8.60594 16.3861 8.66234 16.4145 8.72603L17.7842 8.11456ZM17.523 7.98705C17.523 7.93779 17.523 7.84237 17.523 7.7931H16.023C16.023 7.84237 16.023 7.93779 16.023 7.98705H17.523ZM17.523 7.7931C17.523 6.12171 17.2167 4.49946 16.3799 3.27422C15.5116 2.00279 14.1335 1.25 12.2298 1.25V2.75C13.684 2.75 14.5774 3.29463 15.1412 4.12018C15.7366 4.99192 16.023 6.26623 16.023 7.7931H17.523ZM12.2298 1.25C10.3271 1.25 8.94875 1.9999 8.07999 3.27069C7.2429 4.49516 6.93674 6.11774 6.93674 7.7931H8.43674C8.43674 6.26157 8.72326 4.9876 9.31828 4.11724C9.88163 3.2932 10.7748 2.75 12.2298 2.75V1.25ZM6.93674 7.7931C6.93674 7.79323 6.93674 7.79336 6.93674 7.79348C6.93674 7.79361 6.93674 7.79374 6.93674 7.79386C6.93674 7.79399 6.93674 7.79412 6.93674 7.79424C6.93674 7.79437 6.93674 7.79449 6.93674 7.79462C6.93674 7.79475 6.93674 7.79487 6.93674 7.795C6.93674 7.79513 6.93674 7.79525 6.93674 7.79538C6.93674 7.7955 6.93674 7.79563 6.93674 7.79576C6.93674 7.79588 6.93674 7.79601 6.93674 7.79614C6.93674 7.79626 6.93674 7.79639 6.93674 7.79651C6.93674 7.79664 6.93674 7.79677 6.93674 7.79689C6.93674 7.79702 6.93674 7.79715 6.93674 7.79727C6.93674 7.7974 6.93674 7.79752 6.93674 7.79765C6.93674 7.79778 6.93674 7.7979 6.93674 7.79803C6.93674 7.79816 6.93674 7.79828 6.93674 7.79841C6.93674 7.79853 6.93674 7.79866 6.93674 7.79879C6.93674 7.79891 6.93674 7.79904 6.93674 7.79917C6.93674 7.79929 6.93674 7.79942 6.93674 7.79954C6.93674 7.79967 6.93674 7.7998 6.93674 7.79992C6.93674 7.80005 6.93674 7.80018 6.93674 7.8003C6.93674 7.80043 6.93674 7.80056 6.93674 7.80068C6.93674 7.80081 6.93674 7.80093 6.93674 7.80106C6.93674 7.80119 6.93674 7.80131 6.93674 7.80144C6.93674 7.80157 6.93674 7.80169 6.93674 7.80182C6.93674 7.80194 6.93674 7.80207 6.93674 7.8022C6.93674 7.80232 6.93674 7.80245 6.93674 7.80258C6.93674 7.8027 6.93674 7.80283 6.93674 7.80295C6.93674 7.80308 6.93674 7.80321 6.93674 7.80333C6.93674 7.80346 6.93674 7.80359 6.93674 7.80371C6.93674 7.80384 6.93674 7.80396 6.93674 7.80409C6.93674 7.80422 6.93674 7.80434 6.93674 7.80447C6.93674 7.8046 6.93674 7.80472 6.93674 7.80485C6.93674 7.80497 6.93674 7.8051 6.93674 7.80523C6.93674 7.80535 6.93674 7.80548 6.93674 7.80561C6.93674 7.80573 6.93674 7.80586 6.93674 7.80598C6.93674 7.80611 6.93674 7.80624 6.93674 7.80636C6.93674 7.80649 6.93674 7.80662 6.93674 7.80674C6.93674 7.80687 6.93674 7.80699 6.93674 7.80712C6.93674 7.80725 6.93674 7.80737 6.93674 7.8075C6.93674 7.80763 6.93674 7.80775 6.93674 7.80788C6.93674 7.80801 6.93674 7.80813 6.93674 7.80826C6.93674 7.80838 6.93674 7.80851 6.93674 7.80864C6.93674 7.80876 6.93674 7.80889 6.93674 7.80902C6.93674 7.80914 6.93674 7.80927 6.93674 7.80939C6.93674 7.80952 6.93674 7.80965 6.93674 7.80977C6.93674 7.8099 6.93674 7.81003 6.93674 7.81015C6.93674 7.81028 6.93674 7.8104 6.93674 7.81053C6.93674 7.81066 6.93674 7.81078 6.93674 7.81091C6.93674 7.81104 6.93674 7.81116 6.93674 7.81129C6.93674 7.81141 6.93674 7.81154 6.93674 7.81167C6.93674 7.81179 6.93674 7.81192 6.93674 7.81205C6.93674 7.81217 6.93674 7.8123 6.93674 7.81242C6.93674 7.81255 6.93674 7.81268 6.93674 7.8128C6.93674 7.81293 6.93674 7.81306 6.93674 7.81318C6.93674 7.81331 6.93674 7.81344 6.93674 7.81356C6.93674 7.81369 6.93674 7.81381 6.93674 7.81394C6.93674 7.81407 6.93674 7.81419 6.93674 7.81432C6.93674 7.81445 6.93674 7.81457 6.93674 7.8147C6.93674 7.81482 6.93674 7.81495 6.93674 7.81508C6.93674 7.8152 6.93674 7.81533 6.93674 7.81546C6.93674 7.81558 6.93674 7.81571 6.93674 7.81583C6.93674 7.81596 6.93674 7.81609 6.93674 7.81621C6.93674 7.81634 6.93674 7.81647 6.93674 7.81659C6.93674 7.81672 6.93674 7.81684 6.93674 7.81697C6.93674 7.8171 6.93674 7.81722 6.93674 7.81735C6.93674 7.81748 6.93674 7.8176 6.93674 7.81773C6.93674 7.81785 6.93674 7.81798 6.93674 7.81811C6.93674 7.81823 6.93674 7.81836 6.93674 7.81849C6.93674 7.81861 6.93674 7.81874 6.93674 7.81886C6.93674 7.81899 6.93674 7.81912 6.93674 7.81924C6.93674 7.81937 6.93674 7.8195 6.93674 7.81962C6.93674 7.81975 6.93674 7.81987 6.93674 7.82C6.93674 7.82013 6.93674 7.82025 6.93674 7.82038C6.93674 7.82051 6.93674 7.82063 6.93674 7.82076C6.93674 7.82089 6.93674 7.82101 6.93674 7.82114C6.93674 7.82126 6.93674 7.82139 6.93674 7.82152C6.93674 7.82164 6.93674 7.82177 6.93674 7.8219C6.93674 7.82202 6.93674 7.82215 6.93674 7.82227C6.93674 7.8224 6.93674 7.82253 6.93674 7.82265C6.93674 7.82278 6.93674 7.82291 6.93674 7.82303C6.93674 7.82316 6.93674 7.82328 6.93674 7.82341C6.93674 7.82354 6.93674 7.82366 6.93674 7.82379C6.93674 7.82392 6.93674 7.82404 6.93674 7.82417C6.93674 7.82429 6.93674 7.82442 6.93674 7.82455C6.93674 7.82467 6.93674 7.8248 6.93674 7.82493C6.93674 7.82505 6.93674 7.82518 6.93674 7.8253C6.93674 7.82543 6.93674 7.82556 6.93674 7.82568C6.93674 7.82581 6.93674 7.82594 6.93674 7.82606C6.93674 7.82619 6.93674 7.82631 6.93674 7.82644C6.93674 7.82657 6.93674 7.82669 6.93674 7.82682C6.93674 7.82695 6.93674 7.82707 6.93674 7.8272C6.93674 7.82732 6.93674 7.82745 6.93674 7.82758C6.93674 7.8277 6.93674 7.82783 6.93674 7.82796C6.93674 7.82808 6.93674 7.82821 6.93674 7.82833C6.93674 7.82846 6.93674 7.82859 6.93674 7.82871C6.93674 7.82884 6.93674 7.82897 6.93674 7.82909C6.93674 7.82922 6.93674 7.82934 6.93674 7.82947C6.93674 7.8296 6.93674 7.82972 6.93674 7.82985C6.93674 7.82998 6.93674 7.8301 6.93674 7.83023C6.93674 7.83036 6.93674 7.83048 6.93674 7.83061C6.93674 7.83073 6.93674 7.83086 6.93674 7.83099C6.93674 7.83111 6.93674 7.83124 6.93674 7.83137C6.93674 7.83149 6.93674 7.83162 6.93674 7.83174C6.93674 7.83187 6.93674 7.832 6.93674 7.83212C6.93674 7.83225 6.93674 7.83238 6.93674 7.8325C6.93674 7.83263 6.93674 7.83275 6.93674 7.83288C6.93674 7.83301 6.93674 7.83313 6.93674 7.83326C6.93674 7.83339 6.93674 7.83351 6.93674 7.83364C6.93674 7.83376 6.93674 7.83389 6.93674 7.83402C6.93674 7.83414 6.93674 7.83427 6.93674 7.8344C6.93674 7.83452 6.93674 7.83465 6.93674 7.83477C6.93674 7.8349 6.93674 7.83503 6.93674 7.83515C6.93674 7.83528 6.93674 7.83541 6.93674 7.83553C6.93674 7.83566 6.93674 7.83578 6.93674 7.83591C6.93674 7.83604 6.93674 7.83616 6.93674 7.83629C6.93674 7.83642 6.93674 7.83654 6.93674 7.83667C6.93674 7.83679 6.93674 7.83692 6.93674 7.83705C6.93674 7.83717 6.93674 7.8373 6.93674 7.83743C6.93674 7.83755 6.93674 7.83768 6.93674 7.8378C6.93674 7.83793 6.93674 7.83806 6.93674 7.83818C6.93674 7.83831 6.93674 7.83844 6.93674 7.83856C6.93674 7.83869 6.93674 7.83881 6.93674 7.83894C6.93674 7.83907 6.93674 7.83919 6.93674 7.83932C6.93674 7.83945 6.93674 7.83957 6.93674 7.8397C6.93674 7.83983 6.93674 7.83995 6.93674 7.84008C6.93674 7.8402 6.93674 7.84033 6.93674 7.84046C6.93674 7.84058 6.93674 7.84071 6.93674 7.84084C6.93674 7.84096 6.93674 7.84109 6.93674 7.84121C6.93674 7.84134 6.93674 7.84147 6.93674 7.84159C6.93674 7.84172 6.93674 7.84185 6.93674 7.84197C6.93674 7.8421 6.93674 7.84222 6.93674 7.84235C6.93674 7.84248 6.93674 7.8426 6.93674 7.84273C6.93674 7.84286 6.93674 7.84298 6.93674 7.84311C6.93674 7.84323 6.93674 7.84336 6.93674 7.84349C6.93674 7.84361 6.93674 7.84374 6.93674 7.84387C6.93674 7.84399 6.93674 7.84412 6.93674 7.84424C6.93674 7.84437 6.93674 7.8445 6.93674 7.84462C6.93674 7.84475 6.93674 7.84488 6.93674 7.845C6.93674 7.84513 6.93674 7.84525 6.93674 7.84538C6.93674 7.84551 6.93674 7.84563 6.93674 7.84576C6.93674 7.84589 6.93674 7.84601 6.93674 7.84614C6.93674 7.84626 6.93674 7.84639 6.93674 7.84652C6.93674 7.84664 6.93674 7.84677 6.93674 7.8469C6.93674 7.84702 6.93674 7.84715 6.93674 7.84727C6.93674 7.8474 6.93674 7.84753 6.93674 7.84765C6.93674 7.84778 6.93674 7.84791 6.93674 7.84803C6.93674 7.84816 6.93674 7.84828 6.93674 7.84841C6.93674 7.84854 6.93674 7.84866 6.93674 7.84879C6.93674 7.84892 6.93674 7.84904 6.93674 7.84917C6.93674 7.84929 6.93674 7.84942 6.93674 7.84955C6.93674 7.84967 6.93674 7.8498 6.93674 7.84993C6.93674 7.85005 6.93674 7.85018 6.93674 7.85031C6.93674 7.85043 6.93674 7.85056 6.93674 7.85068C6.93674 7.85081 6.93674 7.85094 6.93674 7.85106C6.93674 7.85119 6.93674 7.85132 6.93674 7.85144C6.93674 7.85157 6.93674 7.85169 6.93674 7.85182C6.93674 7.85195 6.93674 7.85207 6.93674 7.8522C6.93674 7.85232 6.93674 7.85245 6.93674 7.85258C6.93674 7.8527 6.93674 7.85283 6.93674 7.85296C6.93674 7.85308 6.93674 7.85321 6.93674 7.85334C6.93674 7.85346 6.93674 7.85359 6.93674 7.85371C6.93674 7.85384 6.93674 7.85397 6.93674 7.85409C6.93674 7.85422 6.93674 7.85435 6.93674 7.85447C6.93674 7.8546 6.93674 7.85472 6.93674 7.85485C6.93674 7.85498 6.93674 7.8551 6.93674 7.85523C6.93674 7.85536 6.93674 7.85548 6.93674 7.85561C6.93674 7.85573 6.93674 7.85586 6.93674 7.85599C6.93674 7.85611 6.93674 7.85624 6.93674 7.85637C6.93674 7.85649 6.93674 7.85662 6.93674 7.85674C6.93674 7.85687 6.93674 7.857 6.93674 7.85712C6.93674 7.85725 6.93674 7.85738 6.93674 7.8575C6.93674 7.85763 6.93674 7.85775 6.93674 7.85788C6.93674 7.85801 6.93674 7.85813 6.93674 7.85826C6.93674 7.85839 6.93674 7.85851 6.93674 7.85864C6.93674 7.85876 6.93674 7.85889 6.93674 7.85902C6.93674 7.85914 6.93674 7.85927 6.93674 7.8594C6.93674 7.85952 6.93674 7.85965 6.93674 7.85977C6.93674 7.8599 6.93674 7.86003 6.93674 7.86015C6.93674 7.86028 6.93674 7.86041 6.93674 7.86053C6.93674 7.86066 6.93674 7.86078 6.93674 7.86091C6.93674 7.86104 6.93674 7.86116 6.93674 7.86129C6.93674 7.86142 6.93674 7.86154 6.93674 7.86167C6.93674 7.86179 6.93674 7.86192 6.93674 7.86205C6.93674 7.86217 6.93674 7.8623 6.93674 7.86243C6.93674 7.86255 6.93674 7.86268 6.93674 7.8628C6.93674 7.86293 6.93674 7.86306 6.93674 7.86318C6.93674 7.86331 6.93674 7.86344 6.93674 7.86356C6.93674 7.86369 6.93674 7.86381 6.93674 7.86394C6.93674 7.86407 6.93674 7.86419 6.93674 7.86432C6.93674 7.86445 6.93674 7.86457 6.93674 7.8647C6.93674 7.86482 6.93674 7.86495 6.93674 7.86508C6.93674 7.8652 6.93674 7.86533 6.93674 7.86546C6.93674 7.86558 6.93674 7.86571 6.93674 7.86584C6.93674 7.86596 6.93674 7.86609 6.93674 7.86621C6.93674 7.86634 6.93674 7.86647 6.93674 7.86659C6.93674 7.86672 6.93674 7.86685 6.93674 7.86697C6.93674 7.8671 6.93674 7.86722 6.93674 7.86735C6.93674 7.86748 6.93674 7.8676 6.93674 7.86773C6.93674 7.86786 6.93674 7.86798 6.93674 7.86811C6.93674 7.86823 6.93674 7.86836 6.93674 7.86849C6.93674 7.86861 6.93674 7.86874 6.93674 7.86887C6.93674 7.86899 6.93674 7.86912 6.93674 7.86924C6.93674 7.86937 6.93674 7.8695 6.93674 7.86962C6.93674 7.86975 6.93674 7.86988 6.93674 7.87C6.93674 7.87013 6.93674 7.87025 6.93674 7.87038C6.93674 7.87051 6.93674 7.87063 6.93674 7.87076C6.93674 7.87089 6.93674 7.87101 6.93674 7.87114C6.93674 7.87126 6.93674 7.87139 6.93674 7.87152C6.93674 7.87164 6.93674 7.87177 6.93674 7.8719C6.93674 7.87202 6.93674 7.87215 6.93674 7.87227C6.93674 7.8724 6.93674 7.87253 6.93674 7.87265C6.93674 7.87278 6.93674 7.87291 6.93674 7.87303C6.93674 7.87316 6.93674 7.87328 6.93674 7.87341C6.93674 7.87354 6.93674 7.87366 6.93674 7.87379C6.93674 7.87392 6.93674 7.87404 6.93674 7.87417C6.93674 7.87429 6.93674 7.87442 6.93674 7.87455C6.93674 7.87467 6.93674 7.8748 6.93674 7.87493C6.93674 7.87505 6.93674 7.87518 6.93674 7.8753C6.93674 7.87543 6.93674 7.87556 6.93674 7.87568C6.93674 7.87581 6.93674 7.87594 6.93674 7.87606C6.93674 7.87619 6.93674 7.87631 6.93674 7.87644C6.93674 7.87657 6.93674 7.87669 6.93674 7.87682C6.93674 7.87695 6.93674 7.87707 6.93674 7.8772C6.93674 7.87732 6.93674 7.87745 6.93674 7.87758C6.93674 7.8777 6.93674 7.87783 6.93674 7.87796C6.93674 7.87808 6.93674 7.87821 6.93674 7.87833C6.93674 7.87846 6.93674 7.87859 6.93674 7.87871C6.93674 7.87884 6.93674 7.87897 6.93674 7.87909C6.93674 7.87922 6.93674 7.87934 6.93674 7.87947C6.93674 7.8796 6.93674 7.87972 6.93674 7.87985C6.93674 7.87998 6.93674 7.8801 6.93674 7.88023C6.93674 7.88035 6.93674 7.88048 6.93674 7.88061C6.93674 7.88073 6.93674 7.88086 6.93674 7.88099C6.93674 7.88111 6.93674 7.88124 6.93674 7.88136C6.93674 7.88149 6.93674 7.88162 6.93674 7.88174C6.93674 7.88187 6.93674 7.882 6.93674 7.88212C6.93674 7.88225 6.93674 7.88238 6.93674 7.8825C6.93674 7.88263 6.93674 7.88275 6.93674 7.88288C6.93674 7.88301 6.93674 7.88313 6.93674 7.88326C6.93674 7.88339 6.93674 7.88351 6.93674 7.88364C6.93674 7.88376 6.93674 7.88389 6.93674 7.88402C6.93674 7.88414 6.93674 7.88427 6.93674 7.8844C6.93674 7.88452 6.93674 7.88465 6.93674 7.88477C6.93674 7.8849 6.93674 7.88503 6.93674 7.88515C6.93674 7.88528 6.93674 7.88541 6.93674 7.88553C6.93674 7.88566 6.93674 7.88578 6.93674 7.88591C6.93674 7.88604 6.93674 7.88616 6.93674 7.88629C6.93674 7.88642 6.93674 7.88654 6.93674 7.88667C6.93674 7.88679 6.93674 7.88692 6.93674 7.88705C6.93674 7.88717 6.93674 7.8873 6.93674 7.88743C6.93674 7.88755 6.93674 7.88768 6.93674 7.8878C6.93674 7.88793 6.93674 7.88806 6.93674 7.88818C6.93674 7.88831 6.93674 7.88844 6.93674 7.88856C6.93674 7.88869 6.93674 7.88881 6.93674 7.88894C6.93674 7.88907 6.93674 7.88919 6.93674 7.88932C6.93674 7.88945 6.93674 7.88957 6.93674 7.8897C6.93674 7.88982 6.93674 7.88995 6.93674 7.89008C6.93674 7.8902 6.93674 7.89033 6.93674 7.89046C6.93674 7.89058 6.93674 7.89071 6.93674 7.89083C6.93674 7.89096 6.93674 7.89109 6.93674 7.89121C6.93674 7.89134 6.93674 7.89147 6.93674 7.89159C6.93674 7.89172 6.93674 7.89184 6.93674 7.89197C6.93674 7.8921 6.93674 7.89222 6.93674 7.89235C6.93674 7.89248 6.93674 7.8926 6.93674 7.89273C6.93674 7.89285 6.93674 7.89298 6.93674 7.89311C6.93674 7.89323 6.93674 7.89336 6.93674 7.89349C6.93674 7.89361 6.93674 7.89374 6.93674 7.89386C6.93674 7.89399 6.93674 7.89412 6.93674 7.89424C6.93674 7.89437 6.93674 7.8945 6.93674 7.89462C6.93674 7.89475 6.93674 7.89487 6.93674 7.895C6.93674 7.89513 6.93674 7.89525 6.93674 7.89538C6.93674 7.89551 6.93674 7.89563 6.93674 7.89576C6.93674 7.89588 6.93674 7.89601 6.93674 7.89614C6.93674 7.89626 6.93674 7.89639 6.93674 7.89652C6.93674 7.89664 6.93674 7.89677 6.93674 7.89689C6.93674 7.89702 6.93674 7.89715 6.93674 7.89727C6.93674 7.8974 6.93674 7.89753 6.93674 7.89765C6.93674 7.89778 6.93674 7.8979 6.93674 7.89803C6.93674 7.89816 6.93674 7.89828 6.93674 7.89841C6.93674 7.89854 6.93674 7.89866 6.93674 7.89879C6.93674 7.89891 6.93674 7.89904 6.93674 7.89917C6.93674 7.89929 6.93674 7.89942 6.93674 7.89955C6.93674 7.89967 6.93674 7.8998 6.93674 7.89993C6.93674 7.90005 6.93674 7.90018 6.93674 7.9003C6.93674 7.90043 6.93674 7.90056 6.93674 7.90068C6.93674 7.90081 6.93674 7.90094 6.93674 7.90106C6.93674 7.90119 6.93674 7.90131 6.93674 7.90144C6.93674 7.90157 6.93674 7.90169 6.93674 7.90182C6.93674 7.90195 6.93674 7.90207 6.93674 7.9022C6.93674 7.90232 6.93674 7.90245 6.93674 7.90258C6.93674 7.9027 6.93674 7.90283 6.93674 7.90296C6.93674 7.90308 6.93674 7.90321 6.93674 7.90333C6.93674 7.90346 6.93674 7.90359 6.93674 7.90371C6.93674 7.90384 6.93674 7.90397 6.93674 7.90409C6.93674 7.90422 6.93674 7.90434 6.93674 7.90447C6.93674 7.9046 6.93674 7.90472 6.93674 7.90485C6.93674 7.90498 6.93674 7.9051 6.93674 7.90523C6.93674 7.90535 6.93674 7.90548 6.93674 7.90561C6.93674 7.90573 6.93674 7.90586 6.93674 7.90599C6.93674 7.90611 6.93674 7.90624 6.93674 7.90636C6.93674 7.90649 6.93674 7.90662 6.93674 7.90674C6.93674 7.90687 6.93674 7.907 6.93674 7.90712C6.93674 7.90725 6.93674 7.90737 6.93674 7.9075C6.93674 7.90763 6.93674 7.90775 6.93674 7.90788C6.93674 7.90801 6.93674 7.90813 6.93674 7.90826C6.93674 7.90838 6.93674 7.90851 6.93674 7.90864C6.93674 7.90876 6.93674 7.90889 6.93674 7.90902C6.93674 7.90914 6.93674 7.90927 6.93674 7.90939C6.93674 7.90952 6.93674 7.90965 6.93674 7.90977C6.93674 7.9099 6.93674 7.91003 6.93674 7.91015C6.93674 7.91028 6.93674 7.9104 6.93674 7.91053C6.93674 7.91066 6.93674 7.91078 6.93674 7.91091C6.93674 7.91104 6.93674 7.91116 6.93674 7.91129C6.93674 7.91141 6.93674 7.91154 6.93674 7.91167C6.93674 7.91179 6.93674 7.91192 6.93674 7.91205C6.93674 7.91217 6.93674 7.9123 6.93674 7.91242C6.93674 7.91255 6.93674 7.91268 6.93674 7.9128C6.93674 7.91293 6.93674 7.91306 6.93674 7.91318C6.93674 7.91331 6.93674 7.91343 6.93674 7.91356C6.93674 7.91369 6.93674 7.91381 6.93674 7.91394C6.93674 7.91407 6.93674 7.91419 6.93674 7.91432C6.93674 7.91444 6.93674 7.91457 6.93674 7.9147C6.93674 7.91482 6.93674 7.91495 6.93674 7.91508C6.93674 7.9152 6.93674 7.91533 6.93674 7.91545C6.93674 7.91558 6.93674 7.91571 6.93674 7.91583C6.93674 7.91596 6.93674 7.91609 6.93674 7.91621C6.93674 7.91634 6.93674 7.91647 6.93674 7.91659C6.93674 7.91672 6.93674 7.91684 6.93674 7.91697C6.93674 7.9171 6.93674 7.91722 6.93674 7.91735C6.93674 7.91748 6.93674 7.9176 6.93674 7.91773C6.93674 7.91785 6.93674 7.91798 6.93674 7.91811C6.93674 7.91823 6.93674 7.91836 6.93674 7.91849C6.93674 7.91861 6.93674 7.91874 6.93674 7.91886C6.93674 7.91899 6.93674 7.91912 6.93674 7.91924C6.93674 7.91937 6.93674 7.9195 6.93674 7.91962C6.93674 7.91975 6.93674 7.91987 6.93674 7.92C6.93674 7.92013 6.93674 7.92025 6.93674 7.92038C6.93674 7.92051 6.93674 7.92063 6.93674 7.92076C6.93674 7.92088 6.93674 7.92101 6.93674 7.92114C6.93674 7.92126 6.93674 7.92139 6.93674 7.92152C6.93674 7.92164 6.93674 7.92177 6.93674 7.92189C6.93674 7.92202 6.93674 7.92215 6.93674 7.92227C6.93674 7.9224 6.93674 7.92253 6.93674 7.92265C6.93674 7.92278 6.93674 7.9229 6.93674 7.92303C6.93674 7.92316 6.93674 7.92328 6.93674 7.92341C6.93674 7.92354 6.93674 7.92366 6.93674 7.92379C6.93674 7.92391 6.93674 7.92404 6.93674 7.92417C6.93674 7.92429 6.93674 7.92442 6.93674 7.92455C6.93674 7.92467 6.93674 7.9248 6.93674 7.92492C6.93674 7.92505 6.93674 7.92518 6.93674 7.9253C6.93674 7.92543 6.93674 7.92556 6.93674 7.92568C6.93674 7.92581 6.93674 7.92593 6.93674 7.92606C6.93674 7.92619 6.93674 7.92631 6.93674 7.92644C6.93674 7.92657 6.93674 7.92669 6.93674 7.92682C6.93674 7.92694 6.93674 7.92707 6.93674 7.9272C6.93674 7.92732 6.93674 7.92745 6.93674 7.92758C6.93674 7.9277 6.93674 7.92783 6.93674 7.92795C6.93674 7.92808 6.93674 7.92821 6.93674 7.92833C6.93674 7.92846 6.93674 7.92859 6.93674 7.92871C6.93674 7.92884 6.93674 7.92897 6.93674 7.92909C6.93674 7.92922 6.93674 7.92934 6.93674 7.92947C6.93674 7.9296 6.93674 7.92972 6.93674 7.92985C6.93674 7.92998 6.93674 7.9301 6.93674 7.93023C6.93674 7.93035 6.93674 7.93048 6.93674 7.93061C6.93674 7.93073 6.93674 7.93086 6.93674 7.93098C6.93674 7.93111 6.93674 7.93124 6.93674 7.93136C6.93674 7.93149 6.93674 7.93162 6.93674 7.93174C6.93674 7.93187 6.93674 7.932 6.93674 7.93212C6.93674 7.93225 6.93674 7.93237 6.93674 7.9325C6.93674 7.93263 6.93674 7.93275 6.93674 7.93288C6.93674 7.93301 6.93674 7.93313 6.93674 7.93326C6.93674 7.93338 6.93674 7.93351 6.93674 7.93364C6.93674 7.93376 6.93674 7.93389 6.93674 7.93402C6.93674 7.93414 6.93674 7.93427 6.93674 7.93439C6.93674 7.93452 6.93674 7.93465 6.93674 7.93477C6.93674 7.9349 6.93674 7.93503 6.93674 7.93515C6.93674 7.93528 6.93674 7.9354 6.93674 7.93553C6.93674 7.93566 6.93674 7.93578 6.93674 7.93591C6.93674 7.93604 6.93674 7.93616 6.93674 7.93629C6.93674 7.93641 6.93674 7.93654 6.93674 7.93667C6.93674 7.93679 6.93674 7.93692 6.93674 7.93705C6.93674 7.93717 6.93674 7.9373 6.93674 7.93742C6.93674 7.93755 6.93674 7.93768 6.93674 7.9378C6.93674 7.93793 6.93674 7.93806 6.93674 7.93818C6.93674 7.93831 6.93674 7.93843 6.93674 7.93856C6.93674 7.93869 6.93674 7.93881 6.93674 7.93894C6.93674 7.93907 6.93674 7.93919 6.93674 7.93932C6.93674 7.93945 6.93674 7.93957 6.93674 7.9397C6.93674 7.93982 6.93674 7.93995 6.93674 7.94008C6.93674 7.9402 6.93674 7.94033 6.93674 7.94045C6.93674 7.94058 6.93674 7.94071 6.93674 7.94083C6.93674 7.94096 6.93674 7.94109 6.93674 7.94121C6.93674 7.94134 6.93674 7.94146 6.93674 7.94159C6.93674 7.94172 6.93674 7.94184 6.93674 7.94197C6.93674 7.9421 6.93674 7.94222 6.93674 7.94235C6.93674 7.94248 6.93674 7.9426 6.93674 7.94273C6.93674 7.94285 6.93674 7.94298 6.93674 7.94311C6.93674 7.94323 6.93674 7.94336 6.93674 7.94349C6.93674 7.94361 6.93674 7.94374 6.93674 7.94386C6.93674 7.94399 6.93674 7.94412 6.93674 7.94424C6.93674 7.94437 6.93674 7.9445 6.93674 7.94462C6.93674 7.94475 6.93674 7.94487 6.93674 7.945C6.93674 7.94513 6.93674 7.94525 6.93674 7.94538C6.93674 7.94551 6.93674 7.94563 6.93674 7.94576C6.93674 7.94588 6.93674 7.94601 6.93674 7.94614C6.93674 7.94626 6.93674 7.94639 6.93674 7.94652C6.93674 7.94664 6.93674 7.94677 6.93674 7.94689C6.93674 7.94702 6.93674 7.94715 6.93674 7.94727C6.93674 7.9474 6.93674 7.94753 6.93674 7.94765C6.93674 7.94778 6.93674 7.9479 6.93674 7.94803C6.93674 7.94816 6.93674 7.94828 6.93674 7.94841C6.93674 7.94854 6.93674 7.94866 6.93674 7.94879C6.93674 7.94892 6.93674 7.94904 6.93674 7.94917C6.93674 7.94929 6.93674 7.94942 6.93674 7.94955C6.93674 7.94967 6.93674 7.9498 6.93674 7.94992C6.93674 7.95005 6.93674 7.95018 6.93674 7.9503C6.93674 7.95043 6.93674 7.95056 6.93674 7.95068C6.93674 7.95081 6.93674 7.95093 6.93674 7.95106C6.93674 7.95119 6.93674 7.95131 6.93674 7.95144C6.93674 7.95157 6.93674 7.95169 6.93674 7.95182C6.93674 7.95195 6.93674 7.95207 6.93674 7.9522C6.93674 7.95232 6.93674 7.95245 6.93674 7.95258C6.93674 7.9527 6.93674 7.95283 6.93674 7.95296C6.93674 7.95308 6.93674 7.95321 6.93674 7.95333C6.93674 7.95346 6.93674 7.95359 6.93674 7.95371C6.93674 7.95384 6.93674 7.95397 6.93674 7.95409C6.93674 7.95422 6.93674 7.95434 6.93674 7.95447C6.93674 7.9546 6.93674 7.95472 6.93674 7.95485C6.93674 7.95498 6.93674 7.9551 6.93674 7.95523C6.93674 7.95535 6.93674 7.95548 6.93674 7.95561C6.93674 7.95573 6.93674 7.95586 6.93674 7.95599C6.93674 7.95611 6.93674 7.95624 6.93674 7.95636C6.93674 7.95649 6.93674 7.95662 6.93674 7.95674C6.93674 7.95687 6.93674 7.957 6.93674 7.95712C6.93674 7.95725 6.93674 7.95737 6.93674 7.9575C6.93674 7.95763 6.93674 7.95775 6.93674 7.95788C6.93674 7.95801 6.93674 7.95813 6.93674 7.95826C6.93674 7.95838 6.93674 7.95851 6.93674 7.95864C6.93674 7.95876 6.93674 7.95889 6.93674 7.95902C6.93674 7.95914 6.93674 7.95927 6.93674 7.95939C6.93674 7.95952 6.93674 7.95965 6.93674 7.95977C6.93674 7.9599 6.93674 7.96003 6.93674 7.96015C6.93674 7.96028 6.93674 7.96041 6.93674 7.96053C6.93674 7.96066 6.93674 7.96078 6.93674 7.96091C6.93674 7.96104 6.93674 7.96116 6.93674 7.96129C6.93674 7.96142 6.93674 7.96154 6.93674 7.96167C6.93674 7.96179 6.93674 7.96192 6.93674 7.96205C6.93674 7.96217 6.93674 7.9623 6.93674 7.96243C6.93674 7.96255 6.93674 7.96268 6.93674 7.9628C6.93674 7.96293 6.93674 7.96306 6.93674 7.96318C6.93674 7.96331 6.93674 7.96344 6.93674 7.96356C6.93674 7.96369 6.93674 7.96381 6.93674 7.96394C6.93674 7.96407 6.93674 7.96419 6.93674 7.96432C6.93674 7.96445 6.93674 7.96457 6.93674 7.9647C6.93674 7.96482 6.93674 7.96495 6.93674 7.96508C6.93674 7.9652 6.93674 7.96533 6.93674 7.96546C6.93674 7.96558 6.93674 7.96571 6.93674 7.96583C6.93674 7.96596 6.93674 7.96609 6.93674 7.96621C6.93674 7.96634 6.93674 7.96647 6.93674 7.96659C6.93674 7.96672 6.93674 7.96685 6.93674 7.96697C6.93674 7.9671 6.93674 7.96722 6.93674 7.96735C6.93674 7.96748 6.93674 7.9676 6.93674 7.96773C6.93674 7.96785 6.93674 7.96798 6.93674 7.96811C6.93674 7.96823 6.93674 7.96836 6.93674 7.96849C6.93674 7.96861 6.93674 7.96874 6.93674 7.96887C6.93674 7.96899 6.93674 7.96912 6.93674 7.96924C6.93674 7.96937 6.93674 7.9695 6.93674 7.96962C6.93674 7.96975 6.93674 7.96988 6.93674 7.97C6.93674 7.97013 6.93674 7.97025 6.93674 7.97038C6.93674 7.97051 6.93674 7.97063 6.93674 7.97076C6.93674 7.97089 6.93674 7.97101 6.93674 7.97114C6.93674 7.97126 6.93674 7.97139 6.93674 7.97152C6.93674 7.97164 6.93674 7.97177 6.93674 7.9719C6.93674 7.97202 6.93674 7.97215 6.93674 7.97227C6.93674 7.9724 6.93674 7.97253 6.93674 7.97265C6.93674 7.97278 6.93674 7.97291 6.93674 7.97303C6.93674 7.97316 6.93674 7.97328 6.93674 7.97341C6.93674 7.97354 6.93674 7.97366 6.93674 7.97379C6.93674 7.97392 6.93674 7.97404 6.93674 7.97417C6.93674 7.9743 6.93674 7.97442 6.93674 7.97455C6.93674 7.97467 6.93674 7.9748 6.93674 7.97493C6.93674 7.97505 6.93674 7.97518 6.93674 7.97531C6.93674 7.97543 6.93674 7.97556 6.93674 7.97568C6.93674 7.97581 6.93674 7.97594 6.93674 7.97606C6.93674 7.97619 6.93674 7.97632 6.93674 7.97644C6.93674 7.97657 6.93674 7.97669 6.93674 7.97682C6.93674 7.97695 6.93674 7.97707 6.93674 7.9772C6.93674 7.97733 6.93674 7.97745 6.93674 7.97758C6.93674 7.9777 6.93674 7.97783 6.93674 7.97796C6.93674 7.97808 6.93674 7.97821 6.93674 7.97834C6.93674 7.97846 6.93674 7.97859 6.93674 7.97871C6.93674 7.97884 6.93674 7.97897 6.93674 7.97909C6.93674 7.97922 6.93674 7.97935 6.93674 7.97947C6.93674 7.9796 6.93674 7.97972 6.93674 7.97985C6.93674 7.97998 6.93674 7.9801 6.93674 7.98023C6.93674 7.98036 6.93674 7.98048 6.93674 7.98061C6.93674 7.98074 6.93674 7.98086 6.93674 7.98099C6.93674 7.98111 6.93674 7.98124 6.93674 7.98137C6.93674 7.98149 6.93674 7.98162 6.93674 7.98175C6.93674 7.98187 6.93674 7.982 6.93674 7.98212C6.93674 7.98225 6.93674 7.98238 6.93674 7.9825C6.93674 7.98263 6.93674 7.98276 6.93674 7.98288C6.93674 7.98301 6.93674 7.98313 6.93674 7.98326C6.93674 7.98339 6.93674 7.98351 6.93674 7.98364C6.93674 7.98377 6.93674 7.98389 6.93674 7.98402C6.93674 7.98414 6.93674 7.98427 6.93674 7.9844C6.93674 7.98452 6.93674 7.98465 6.93674 7.98478C6.93674 7.9849 6.93674 7.98503 6.93674 7.98516C6.93674 7.98528 6.93674 7.98541 6.93674 7.98553C6.93674 7.98566 6.93674 7.98579 6.93674 7.98591C6.93674 7.98604 6.93674 7.98617 6.93674 7.98629C6.93674 7.98642 6.93674 7.98654 6.93674 7.98667C6.93674 7.9868 6.93674 7.98692 6.93674 7.98705H8.43674C8.43674 7.98692 8.43674 7.9868 8.43674 7.98667C8.43674 7.98654 8.43674 7.98642 8.43674 7.98629C8.43674 7.98617 8.43674 7.98604 8.43674 7.98591C8.43674 7.98579 8.43674 7.98566 8.43674 7.98553C8.43674 7.98541 8.43674 7.98528 8.43674 7.98516C8.43674 7.98503 8.43674 7.9849 8.43674 7.98478C8.43674 7.98465 8.43674 7.98452 8.43674 7.9844C8.43674 7.98427 8.43674 7.98414 8.43674 7.98402C8.43674 7.98389 8.43674 7.98377 8.43674 7.98364C8.43674 7.98351 8.43674 7.98339 8.43674 7.98326C8.43674 7.98313 8.43674 7.98301 8.43674 7.98288C8.43674 7.98276 8.43674 7.98263 8.43674 7.9825C8.43674 7.98238 8.43674 7.98225 8.43674 7.98212C8.43674 7.982 8.43674 7.98187 8.43674 7.98175C8.43674 7.98162 8.43674 7.98149 8.43674 7.98137C8.43674 7.98124 8.43674 7.98111 8.43674 7.98099C8.43674 7.98086 8.43674 7.98074 8.43674 7.98061C8.43674 7.98048 8.43674 7.98036 8.43674 7.98023C8.43674 7.9801 8.43674 7.97998 8.43674 7.97985C8.43674 7.97972 8.43674 7.9796 8.43674 7.97947C8.43674 7.97935 8.43674 7.97922 8.43674 7.97909C8.43674 7.97897 8.43674 7.97884 8.43674 7.97871C8.43674 7.97859 8.43674 7.97846 8.43674 7.97834C8.43674 7.97821 8.43674 7.97808 8.43674 7.97796C8.43674 7.97783 8.43674 7.9777 8.43674 7.97758C8.43674 7.97745 8.43674 7.97733 8.43674 7.9772C8.43674 7.97707 8.43674 7.97695 8.43674 7.97682C8.43674 7.97669 8.43674 7.97657 8.43674 7.97644C8.43674 7.97632 8.43674 7.97619 8.43674 7.97606C8.43674 7.97594 8.43674 7.97581 8.43674 7.97568C8.43674 7.97556 8.43674 7.97543 8.43674 7.97531C8.43674 7.97518 8.43674 7.97505 8.43674 7.97493C8.43674 7.9748 8.43674 7.97467 8.43674 7.97455C8.43674 7.97442 8.43674 7.9743 8.43674 7.97417C8.43674 7.97404 8.43674 7.97392 8.43674 7.97379C8.43674 7.97366 8.43674 7.97354 8.43674 7.97341C8.43674 7.97328 8.43674 7.97316 8.43674 7.97303C8.43674 7.97291 8.43674 7.97278 8.43674 7.97265C8.43674 7.97253 8.43674 7.9724 8.43674 7.97227C8.43674 7.97215 8.43674 7.97202 8.43674 7.9719C8.43674 7.97177 8.43674 7.97164 8.43674 7.97152C8.43674 7.97139 8.43674 7.97126 8.43674 7.97114C8.43674 7.97101 8.43674 7.97089 8.43674 7.97076C8.43674 7.97063 8.43674 7.97051 8.43674 7.97038C8.43674 7.97025 8.43674 7.97013 8.43674 7.97C8.43674 7.96988 8.43674 7.96975 8.43674 7.96962C8.43674 7.9695 8.43674 7.96937 8.43674 7.96924C8.43674 7.96912 8.43674 7.96899 8.43674 7.96887C8.43674 7.96874 8.43674 7.96861 8.43674 7.96849C8.43674 7.96836 8.43674 7.96823 8.43674 7.96811C8.43674 7.96798 8.43674 7.96785 8.43674 7.96773C8.43674 7.9676 8.43674 7.96748 8.43674 7.96735C8.43674 7.96722 8.43674 7.9671 8.43674 7.96697C8.43674 7.96685 8.43674 7.96672 8.43674 7.96659C8.43674 7.96647 8.43674 7.96634 8.43674 7.96621C8.43674 7.96609 8.43674 7.96596 8.43674 7.96583C8.43674 7.96571 8.43674 7.96558 8.43674 7.96546C8.43674 7.96533 8.43674 7.9652 8.43674 7.96508C8.43674 7.96495 8.43674 7.96482 8.43674 7.9647C8.43674 7.96457 8.43674 7.96445 8.43674 7.96432C8.43674 7.96419 8.43674 7.96407 8.43674 7.96394C8.43674 7.96381 8.43674 7.96369 8.43674 7.96356C8.43674 7.96344 8.43674 7.96331 8.43674 7.96318C8.43674 7.96306 8.43674 7.96293 8.43674 7.9628C8.43674 7.96268 8.43674 7.96255 8.43674 7.96243C8.43674 7.9623 8.43674 7.96217 8.43674 7.96205C8.43674 7.96192 8.43674 7.96179 8.43674 7.96167C8.43674 7.96154 8.43674 7.96142 8.43674 7.96129C8.43674 7.96116 8.43674 7.96104 8.43674 7.96091C8.43674 7.96078 8.43674 7.96066 8.43674 7.96053C8.43674 7.96041 8.43674 7.96028 8.43674 7.96015C8.43674 7.96003 8.43674 7.9599 8.43674 7.95977C8.43674 7.95965 8.43674 7.95952 8.43674 7.95939C8.43674 7.95927 8.43674 7.95914 8.43674 7.95902C8.43674 7.95889 8.43674 7.95876 8.43674 7.95864C8.43674 7.95851 8.43674 7.95838 8.43674 7.95826C8.43674 7.95813 8.43674 7.95801 8.43674 7.95788C8.43674 7.95775 8.43674 7.95763 8.43674 7.9575C8.43674 7.95737 8.43674 7.95725 8.43674 7.95712C8.43674 7.957 8.43674 7.95687 8.43674 7.95674C8.43674 7.95662 8.43674 7.95649 8.43674 7.95636C8.43674 7.95624 8.43674 7.95611 8.43674 7.95599C8.43674 7.95586 8.43674 7.95573 8.43674 7.95561C8.43674 7.95548 8.43674 7.95535 8.43674 7.95523C8.43674 7.9551 8.43674 7.95498 8.43674 7.95485C8.43674 7.95472 8.43674 7.9546 8.43674 7.95447C8.43674 7.95434 8.43674 7.95422 8.43674 7.95409C8.43674 7.95397 8.43674 7.95384 8.43674 7.95371C8.43674 7.95359 8.43674 7.95346 8.43674 7.95333C8.43674 7.95321 8.43674 7.95308 8.43674 7.95296C8.43674 7.95283 8.43674 7.9527 8.43674 7.95258C8.43674 7.95245 8.43674 7.95232 8.43674 7.9522C8.43674 7.95207 8.43674 7.95195 8.43674 7.95182C8.43674 7.95169 8.43674 7.95157 8.43674 7.95144C8.43674 7.95131 8.43674 7.95119 8.43674 7.95106C8.43674 7.95093 8.43674 7.95081 8.43674 7.95068C8.43674 7.95056 8.43674 7.95043 8.43674 7.9503C8.43674 7.95018 8.43674 7.95005 8.43674 7.94992C8.43674 7.9498 8.43674 7.94967 8.43674 7.94955C8.43674 7.94942 8.43674 7.94929 8.43674 7.94917C8.43674 7.94904 8.43674 7.94892 8.43674 7.94879C8.43674 7.94866 8.43674 7.94854 8.43674 7.94841C8.43674 7.94828 8.43674 7.94816 8.43674 7.94803C8.43674 7.9479 8.43674 7.94778 8.43674 7.94765C8.43674 7.94753 8.43674 7.9474 8.43674 7.94727C8.43674 7.94715 8.43674 7.94702 8.43674 7.94689C8.43674 7.94677 8.43674 7.94664 8.43674 7.94652C8.43674 7.94639 8.43674 7.94626 8.43674 7.94614C8.43674 7.94601 8.43674 7.94588 8.43674 7.94576C8.43674 7.94563 8.43674 7.94551 8.43674 7.94538C8.43674 7.94525 8.43674 7.94513 8.43674 7.945C8.43674 7.94487 8.43674 7.94475 8.43674 7.94462C8.43674 7.9445 8.43674 7.94437 8.43674 7.94424C8.43674 7.94412 8.43674 7.94399 8.43674 7.94386C8.43674 7.94374 8.43674 7.94361 8.43674 7.94349C8.43674 7.94336 8.43674 7.94323 8.43674 7.94311C8.43674 7.94298 8.43674 7.94285 8.43674 7.94273C8.43674 7.9426 8.43674 7.94248 8.43674 7.94235C8.43674 7.94222 8.43674 7.9421 8.43674 7.94197C8.43674 7.94184 8.43674 7.94172 8.43674 7.94159C8.43674 7.94146 8.43674 7.94134 8.43674 7.94121C8.43674 7.94109 8.43674 7.94096 8.43674 7.94083C8.43674 7.94071 8.43674 7.94058 8.43674 7.94045C8.43674 7.94033 8.43674 7.9402 8.43674 7.94008C8.43674 7.93995 8.43674 7.93982 8.43674 7.9397C8.43674 7.93957 8.43674 7.93945 8.43674 7.93932C8.43674 7.93919 8.43674 7.93907 8.43674 7.93894C8.43674 7.93881 8.43674 7.93869 8.43674 7.93856C8.43674 7.93843 8.43674 7.93831 8.43674 7.93818C8.43674 7.93806 8.43674 7.93793 8.43674 7.9378C8.43674 7.93768 8.43674 7.93755 8.43674 7.93742C8.43674 7.9373 8.43674 7.93717 8.43674 7.93705C8.43674 7.93692 8.43674 7.93679 8.43674 7.93667C8.43674 7.93654 8.43674 7.93641 8.43674 7.93629C8.43674 7.93616 8.43674 7.93604 8.43674 7.93591C8.43674 7.93578 8.43674 7.93566 8.43674 7.93553C8.43674 7.9354 8.43674 7.93528 8.43674 7.93515C8.43674 7.93503 8.43674 7.9349 8.43674 7.93477C8.43674 7.93465 8.43674 7.93452 8.43674 7.93439C8.43674 7.93427 8.43674 7.93414 8.43674 7.93402C8.43674 7.93389 8.43674 7.93376 8.43674 7.93364C8.43674 7.93351 8.43674 7.93338 8.43674 7.93326C8.43674 7.93313 8.43674 7.93301 8.43674 7.93288C8.43674 7.93275 8.43674 7.93263 8.43674 7.9325C8.43674 7.93237 8.43674 7.93225 8.43674 7.93212C8.43674 7.932 8.43674 7.93187 8.43674 7.93174C8.43674 7.93162 8.43674 7.93149 8.43674 7.93136C8.43674 7.93124 8.43674 7.93111 8.43674 7.93098C8.43674 7.93086 8.43674 7.93073 8.43674 7.93061C8.43674 7.93048 8.43674 7.93035 8.43674 7.93023C8.43674 7.9301 8.43674 7.92998 8.43674 7.92985C8.43674 7.92972 8.43674 7.9296 8.43674 7.92947C8.43674 7.92934 8.43674 7.92922 8.43674 7.92909C8.43674 7.92897 8.43674 7.92884 8.43674 7.92871C8.43674 7.92859 8.43674 7.92846 8.43674 7.92833C8.43674 7.92821 8.43674 7.92808 8.43674 7.92795C8.43674 7.92783 8.43674 7.9277 8.43674 7.92758C8.43674 7.92745 8.43674 7.92732 8.43674 7.9272C8.43674 7.92707 8.43674 7.92694 8.43674 7.92682C8.43674 7.92669 8.43674 7.92657 8.43674 7.92644C8.43674 7.92631 8.43674 7.92619 8.43674 7.92606C8.43674 7.92593 8.43674 7.92581 8.43674 7.92568C8.43674 7.92556 8.43674 7.92543 8.43674 7.9253C8.43674 7.92518 8.43674 7.92505 8.43674 7.92492C8.43674 7.9248 8.43674 7.92467 8.43674 7.92455C8.43674 7.92442 8.43674 7.92429 8.43674 7.92417C8.43674 7.92404 8.43674 7.92391 8.43674 7.92379C8.43674 7.92366 8.43674 7.92354 8.43674 7.92341C8.43674 7.92328 8.43674 7.92316 8.43674 7.92303C8.43674 7.9229 8.43674 7.92278 8.43674 7.92265C8.43674 7.92253 8.43674 7.9224 8.43674 7.92227C8.43674 7.92215 8.43674 7.92202 8.43674 7.92189C8.43674 7.92177 8.43674 7.92164 8.43674 7.92152C8.43674 7.92139 8.43674 7.92126 8.43674 7.92114C8.43674 7.92101 8.43674 7.92088 8.43674 7.92076C8.43674 7.92063 8.43674 7.92051 8.43674 7.92038C8.43674 7.92025 8.43674 7.92013 8.43674 7.92C8.43674 7.91987 8.43674 7.91975 8.43674 7.91962C8.43674 7.9195 8.43674 7.91937 8.43674 7.91924C8.43674 7.91912 8.43674 7.91899 8.43674 7.91886C8.43674 7.91874 8.43674 7.91861 8.43674 7.91849C8.43674 7.91836 8.43674 7.91823 8.43674 7.91811C8.43674 7.91798 8.43674 7.91785 8.43674 7.91773C8.43674 7.9176 8.43674 7.91748 8.43674 7.91735C8.43674 7.91722 8.43674 7.9171 8.43674 7.91697C8.43674 7.91684 8.43674 7.91672 8.43674 7.91659C8.43674 7.91647 8.43674 7.91634 8.43674 7.91621C8.43674 7.91609 8.43674 7.91596 8.43674 7.91583C8.43674 7.91571 8.43674 7.91558 8.43674 7.91545C8.43674 7.91533 8.43674 7.9152 8.43674 7.91508C8.43674 7.91495 8.43674 7.91482 8.43674 7.9147C8.43674 7.91457 8.43674 7.91444 8.43674 7.91432C8.43674 7.91419 8.43674 7.91407 8.43674 7.91394C8.43674 7.91381 8.43674 7.91369 8.43674 7.91356C8.43674 7.91343 8.43674 7.91331 8.43674 7.91318C8.43674 7.91306 8.43674 7.91293 8.43674 7.9128C8.43674 7.91268 8.43674 7.91255 8.43674 7.91242C8.43674 7.9123 8.43674 7.91217 8.43674 7.91205C8.43674 7.91192 8.43674 7.91179 8.43674 7.91167C8.43674 7.91154 8.43674 7.91141 8.43674 7.91129C8.43674 7.91116 8.43674 7.91104 8.43674 7.91091C8.43674 7.91078 8.43674 7.91066 8.43674 7.91053C8.43674 7.9104 8.43674 7.91028 8.43674 7.91015C8.43674 7.91003 8.43674 7.9099 8.43674 7.90977C8.43674 7.90965 8.43674 7.90952 8.43674 7.90939C8.43674 7.90927 8.43674 7.90914 8.43674 7.90902C8.43674 7.90889 8.43674 7.90876 8.43674 7.90864C8.43674 7.90851 8.43674 7.90838 8.43674 7.90826C8.43674 7.90813 8.43674 7.90801 8.43674 7.90788C8.43674 7.90775 8.43674 7.90763 8.43674 7.9075C8.43674 7.90737 8.43674 7.90725 8.43674 7.90712C8.43674 7.907 8.43674 7.90687 8.43674 7.90674C8.43674 7.90662 8.43674 7.90649 8.43674 7.90636C8.43674 7.90624 8.43674 7.90611 8.43674 7.90599C8.43674 7.90586 8.43674 7.90573 8.43674 7.90561C8.43674 7.90548 8.43674 7.90535 8.43674 7.90523C8.43674 7.9051 8.43674 7.90498 8.43674 7.90485C8.43674 7.90472 8.43674 7.9046 8.43674 7.90447C8.43674 7.90434 8.43674 7.90422 8.43674 7.90409C8.43674 7.90397 8.43674 7.90384 8.43674 7.90371C8.43674 7.90359 8.43674 7.90346 8.43674 7.90333C8.43674 7.90321 8.43674 7.90308 8.43674 7.90296C8.43674 7.90283 8.43674 7.9027 8.43674 7.90258C8.43674 7.90245 8.43674 7.90232 8.43674 7.9022C8.43674 7.90207 8.43674 7.90195 8.43674 7.90182C8.43674 7.90169 8.43674 7.90157 8.43674 7.90144C8.43674 7.90131 8.43674 7.90119 8.43674 7.90106C8.43674 7.90094 8.43674 7.90081 8.43674 7.90068C8.43674 7.90056 8.43674 7.90043 8.43674 7.9003C8.43674 7.90018 8.43674 7.90005 8.43674 7.89993C8.43674 7.8998 8.43674 7.89967 8.43674 7.89955C8.43674 7.89942 8.43674 7.89929 8.43674 7.89917C8.43674 7.89904 8.43674 7.89891 8.43674 7.89879C8.43674 7.89866 8.43674 7.89854 8.43674 7.89841C8.43674 7.89828 8.43674 7.89816 8.43674 7.89803C8.43674 7.8979 8.43674 7.89778 8.43674 7.89765C8.43674 7.89753 8.43674 7.8974 8.43674 7.89727C8.43674 7.89715 8.43674 7.89702 8.43674 7.89689C8.43674 7.89677 8.43674 7.89664 8.43674 7.89652C8.43674 7.89639 8.43674 7.89626 8.43674 7.89614C8.43674 7.89601 8.43674 7.89588 8.43674 7.89576C8.43674 7.89563 8.43674 7.89551 8.43674 7.89538C8.43674 7.89525 8.43674 7.89513 8.43674 7.895C8.43674 7.89487 8.43674 7.89475 8.43674 7.89462C8.43674 7.8945 8.43674 7.89437 8.43674 7.89424C8.43674 7.89412 8.43674 7.89399 8.43674 7.89386C8.43674 7.89374 8.43674 7.89361 8.43674 7.89349C8.43674 7.89336 8.43674 7.89323 8.43674 7.89311C8.43674 7.89298 8.43674 7.89285 8.43674 7.89273C8.43674 7.8926 8.43674 7.89248 8.43674 7.89235C8.43674 7.89222 8.43674 7.8921 8.43674 7.89197C8.43674 7.89184 8.43674 7.89172 8.43674 7.89159C8.43674 7.89147 8.43674 7.89134 8.43674 7.89121C8.43674 7.89109 8.43674 7.89096 8.43674 7.89083C8.43674 7.89071 8.43674 7.89058 8.43674 7.89046C8.43674 7.89033 8.43674 7.8902 8.43674 7.89008C8.43674 7.88995 8.43674 7.88982 8.43674 7.8897C8.43674 7.88957 8.43674 7.88945 8.43674 7.88932C8.43674 7.88919 8.43674 7.88907 8.43674 7.88894C8.43674 7.88881 8.43674 7.88869 8.43674 7.88856C8.43674 7.88844 8.43674 7.88831 8.43674 7.88818C8.43674 7.88806 8.43674 7.88793 8.43674 7.8878C8.43674 7.88768 8.43674 7.88755 8.43674 7.88743C8.43674 7.8873 8.43674 7.88717 8.43674 7.88705C8.43674 7.88692 8.43674 7.88679 8.43674 7.88667C8.43674 7.88654 8.43674 7.88642 8.43674 7.88629C8.43674 7.88616 8.43674 7.88604 8.43674 7.88591C8.43674 7.88578 8.43674 7.88566 8.43674 7.88553C8.43674 7.88541 8.43674 7.88528 8.43674 7.88515C8.43674 7.88503 8.43674 7.8849 8.43674 7.88477C8.43674 7.88465 8.43674 7.88452 8.43674 7.8844C8.43674 7.88427 8.43674 7.88414 8.43674 7.88402C8.43674 7.88389 8.43674 7.88376 8.43674 7.88364C8.43674 7.88351 8.43674 7.88339 8.43674 7.88326C8.43674 7.88313 8.43674 7.88301 8.43674 7.88288C8.43674 7.88275 8.43674 7.88263 8.43674 7.8825C8.43674 7.88238 8.43674 7.88225 8.43674 7.88212C8.43674 7.882 8.43674 7.88187 8.43674 7.88174C8.43674 7.88162 8.43674 7.88149 8.43674 7.88136C8.43674 7.88124 8.43674 7.88111 8.43674 7.88099C8.43674 7.88086 8.43674 7.88073 8.43674 7.88061C8.43674 7.88048 8.43674 7.88035 8.43674 7.88023C8.43674 7.8801 8.43674 7.87998 8.43674 7.87985C8.43674 7.87972 8.43674 7.8796 8.43674 7.87947C8.43674 7.87934 8.43674 7.87922 8.43674 7.87909C8.43674 7.87897 8.43674 7.87884 8.43674 7.87871C8.43674 7.87859 8.43674 7.87846 8.43674 7.87833C8.43674 7.87821 8.43674 7.87808 8.43674 7.87796C8.43674 7.87783 8.43674 7.8777 8.43674 7.87758C8.43674 7.87745 8.43674 7.87732 8.43674 7.8772C8.43674 7.87707 8.43674 7.87695 8.43674 7.87682C8.43674 7.87669 8.43674 7.87657 8.43674 7.87644C8.43674 7.87631 8.43674 7.87619 8.43674 7.87606C8.43674 7.87594 8.43674 7.87581 8.43674 7.87568C8.43674 7.87556 8.43674 7.87543 8.43674 7.8753C8.43674 7.87518 8.43674 7.87505 8.43674 7.87493C8.43674 7.8748 8.43674 7.87467 8.43674 7.87455C8.43674 7.87442 8.43674 7.87429 8.43674 7.87417C8.43674 7.87404 8.43674 7.87392 8.43674 7.87379C8.43674 7.87366 8.43674 7.87354 8.43674 7.87341C8.43674 7.87328 8.43674 7.87316 8.43674 7.87303C8.43674 7.87291 8.43674 7.87278 8.43674 7.87265C8.43674 7.87253 8.43674 7.8724 8.43674 7.87227C8.43674 7.87215 8.43674 7.87202 8.43674 7.8719C8.43674 7.87177 8.43674 7.87164 8.43674 7.87152C8.43674 7.87139 8.43674 7.87126 8.43674 7.87114C8.43674 7.87101 8.43674 7.87089 8.43674 7.87076C8.43674 7.87063 8.43674 7.87051 8.43674 7.87038C8.43674 7.87025 8.43674 7.87013 8.43674 7.87C8.43674 7.86988 8.43674 7.86975 8.43674 7.86962C8.43674 7.8695 8.43674 7.86937 8.43674 7.86924C8.43674 7.86912 8.43674 7.86899 8.43674 7.86887C8.43674 7.86874 8.43674 7.86861 8.43674 7.86849C8.43674 7.86836 8.43674 7.86823 8.43674 7.86811C8.43674 7.86798 8.43674 7.86786 8.43674 7.86773C8.43674 7.8676 8.43674 7.86748 8.43674 7.86735C8.43674 7.86722 8.43674 7.8671 8.43674 7.86697C8.43674 7.86685 8.43674 7.86672 8.43674 7.86659C8.43674 7.86647 8.43674 7.86634 8.43674 7.86621C8.43674 7.86609 8.43674 7.86596 8.43674 7.86584C8.43674 7.86571 8.43674 7.86558 8.43674 7.86546C8.43674 7.86533 8.43674 7.8652 8.43674 7.86508C8.43674 7.86495 8.43674 7.86482 8.43674 7.8647C8.43674 7.86457 8.43674 7.86445 8.43674 7.86432C8.43674 7.86419 8.43674 7.86407 8.43674 7.86394C8.43674 7.86381 8.43674 7.86369 8.43674 7.86356C8.43674 7.86344 8.43674 7.86331 8.43674 7.86318C8.43674 7.86306 8.43674 7.86293 8.43674 7.8628C8.43674 7.86268 8.43674 7.86255 8.43674 7.86243C8.43674 7.8623 8.43674 7.86217 8.43674 7.86205C8.43674 7.86192 8.43674 7.86179 8.43674 7.86167C8.43674 7.86154 8.43674 7.86142 8.43674 7.86129C8.43674 7.86116 8.43674 7.86104 8.43674 7.86091C8.43674 7.86078 8.43674 7.86066 8.43674 7.86053C8.43674 7.86041 8.43674 7.86028 8.43674 7.86015C8.43674 7.86003 8.43674 7.8599 8.43674 7.85977C8.43674 7.85965 8.43674 7.85952 8.43674 7.8594C8.43674 7.85927 8.43674 7.85914 8.43674 7.85902C8.43674 7.85889 8.43674 7.85876 8.43674 7.85864C8.43674 7.85851 8.43674 7.85839 8.43674 7.85826C8.43674 7.85813 8.43674 7.85801 8.43674 7.85788C8.43674 7.85775 8.43674 7.85763 8.43674 7.8575C8.43674 7.85738 8.43674 7.85725 8.43674 7.85712C8.43674 7.857 8.43674 7.85687 8.43674 7.85674C8.43674 7.85662 8.43674 7.85649 8.43674 7.85637C8.43674 7.85624 8.43674 7.85611 8.43674 7.85599C8.43674 7.85586 8.43674 7.85573 8.43674 7.85561C8.43674 7.85548 8.43674 7.85536 8.43674 7.85523C8.43674 7.8551 8.43674 7.85498 8.43674 7.85485C8.43674 7.85472 8.43674 7.8546 8.43674 7.85447C8.43674 7.85435 8.43674 7.85422 8.43674 7.85409C8.43674 7.85397 8.43674 7.85384 8.43674 7.85371C8.43674 7.85359 8.43674 7.85346 8.43674 7.85334C8.43674 7.85321 8.43674 7.85308 8.43674 7.85296C8.43674 7.85283 8.43674 7.8527 8.43674 7.85258C8.43674 7.85245 8.43674 7.85232 8.43674 7.8522C8.43674 7.85207 8.43674 7.85195 8.43674 7.85182C8.43674 7.85169 8.43674 7.85157 8.43674 7.85144C8.43674 7.85132 8.43674 7.85119 8.43674 7.85106C8.43674 7.85094 8.43674 7.85081 8.43674 7.85068C8.43674 7.85056 8.43674 7.85043 8.43674 7.85031C8.43674 7.85018 8.43674 7.85005 8.43674 7.84993C8.43674 7.8498 8.43674 7.84967 8.43674 7.84955C8.43674 7.84942 8.43674 7.84929 8.43674 7.84917C8.43674 7.84904 8.43674 7.84892 8.43674 7.84879C8.43674 7.84866 8.43674 7.84854 8.43674 7.84841C8.43674 7.84828 8.43674 7.84816 8.43674 7.84803C8.43674 7.84791 8.43674 7.84778 8.43674 7.84765C8.43674 7.84753 8.43674 7.8474 8.43674 7.84727C8.43674 7.84715 8.43674 7.84702 8.43674 7.8469C8.43674 7.84677 8.43674 7.84664 8.43674 7.84652C8.43674 7.84639 8.43674 7.84626 8.43674 7.84614C8.43674 7.84601 8.43674 7.84589 8.43674 7.84576C8.43674 7.84563 8.43674 7.84551 8.43674 7.84538C8.43674 7.84525 8.43674 7.84513 8.43674 7.845C8.43674 7.84488 8.43674 7.84475 8.43674 7.84462C8.43674 7.8445 8.43674 7.84437 8.43674 7.84424C8.43674 7.84412 8.43674 7.84399 8.43674 7.84387C8.43674 7.84374 8.43674 7.84361 8.43674 7.84349C8.43674 7.84336 8.43674 7.84323 8.43674 7.84311C8.43674 7.84298 8.43674 7.84286 8.43674 7.84273C8.43674 7.8426 8.43674 7.84248 8.43674 7.84235C8.43674 7.84222 8.43674 7.8421 8.43674 7.84197C8.43674 7.84185 8.43674 7.84172 8.43674 7.84159C8.43674 7.84147 8.43674 7.84134 8.43674 7.84121C8.43674 7.84109 8.43674 7.84096 8.43674 7.84084C8.43674 7.84071 8.43674 7.84058 8.43674 7.84046C8.43674 7.84033 8.43674 7.8402 8.43674 7.84008C8.43674 7.83995 8.43674 7.83983 8.43674 7.8397C8.43674 7.83957 8.43674 7.83945 8.43674 7.83932C8.43674 7.83919 8.43674 7.83907 8.43674 7.83894C8.43674 7.83881 8.43674 7.83869 8.43674 7.83856C8.43674 7.83844 8.43674 7.83831 8.43674 7.83818C8.43674 7.83806 8.43674 7.83793 8.43674 7.8378C8.43674 7.83768 8.43674 7.83755 8.43674 7.83743C8.43674 7.8373 8.43674 7.83717 8.43674 7.83705C8.43674 7.83692 8.43674 7.83679 8.43674 7.83667C8.43674 7.83654 8.43674 7.83642 8.43674 7.83629C8.43674 7.83616 8.43674 7.83604 8.43674 7.83591C8.43674 7.83578 8.43674 7.83566 8.43674 7.83553C8.43674 7.83541 8.43674 7.83528 8.43674 7.83515C8.43674 7.83503 8.43674 7.8349 8.43674 7.83477C8.43674 7.83465 8.43674 7.83452 8.43674 7.8344C8.43674 7.83427 8.43674 7.83414 8.43674 7.83402C8.43674 7.83389 8.43674 7.83376 8.43674 7.83364C8.43674 7.83351 8.43674 7.83339 8.43674 7.83326C8.43674 7.83313 8.43674 7.83301 8.43674 7.83288C8.43674 7.83275 8.43674 7.83263 8.43674 7.8325C8.43674 7.83238 8.43674 7.83225 8.43674 7.83212C8.43674 7.832 8.43674 7.83187 8.43674 7.83174C8.43674 7.83162 8.43674 7.83149 8.43674 7.83137C8.43674 7.83124 8.43674 7.83111 8.43674 7.83099C8.43674 7.83086 8.43674 7.83073 8.43674 7.83061C8.43674 7.83048 8.43674 7.83036 8.43674 7.83023C8.43674 7.8301 8.43674 7.82998 8.43674 7.82985C8.43674 7.82972 8.43674 7.8296 8.43674 7.82947C8.43674 7.82934 8.43674 7.82922 8.43674 7.82909C8.43674 7.82897 8.43674 7.82884 8.43674 7.82871C8.43674 7.82859 8.43674 7.82846 8.43674 7.82833C8.43674 7.82821 8.43674 7.82808 8.43674 7.82796C8.43674 7.82783 8.43674 7.8277 8.43674 7.82758C8.43674 7.82745 8.43674 7.82732 8.43674 7.8272C8.43674 7.82707 8.43674 7.82695 8.43674 7.82682C8.43674 7.82669 8.43674 7.82657 8.43674 7.82644C8.43674 7.82631 8.43674 7.82619 8.43674 7.82606C8.43674 7.82594 8.43674 7.82581 8.43674 7.82568C8.43674 7.82556 8.43674 7.82543 8.43674 7.8253C8.43674 7.82518 8.43674 7.82505 8.43674 7.82493C8.43674 7.8248 8.43674 7.82467 8.43674 7.82455C8.43674 7.82442 8.43674 7.82429 8.43674 7.82417C8.43674 7.82404 8.43674 7.82392 8.43674 7.82379C8.43674 7.82366 8.43674 7.82354 8.43674 7.82341C8.43674 7.82328 8.43674 7.82316 8.43674 7.82303C8.43674 7.82291 8.43674 7.82278 8.43674 7.82265C8.43674 7.82253 8.43674 7.8224 8.43674 7.82227C8.43674 7.82215 8.43674 7.82202 8.43674 7.8219C8.43674 7.82177 8.43674 7.82164 8.43674 7.82152C8.43674 7.82139 8.43674 7.82126 8.43674 7.82114C8.43674 7.82101 8.43674 7.82089 8.43674 7.82076C8.43674 7.82063 8.43674 7.82051 8.43674 7.82038C8.43674 7.82025 8.43674 7.82013 8.43674 7.82C8.43674 7.81987 8.43674 7.81975 8.43674 7.81962C8.43674 7.8195 8.43674 7.81937 8.43674 7.81924C8.43674 7.81912 8.43674 7.81899 8.43674 7.81886C8.43674 7.81874 8.43674 7.81861 8.43674 7.81849C8.43674 7.81836 8.43674 7.81823 8.43674 7.81811C8.43674 7.81798 8.43674 7.81785 8.43674 7.81773C8.43674 7.8176 8.43674 7.81748 8.43674 7.81735C8.43674 7.81722 8.43674 7.8171 8.43674 7.81697C8.43674 7.81684 8.43674 7.81672 8.43674 7.81659C8.43674 7.81647 8.43674 7.81634 8.43674 7.81621C8.43674 7.81609 8.43674 7.81596 8.43674 7.81583C8.43674 7.81571 8.43674 7.81558 8.43674 7.81546C8.43674 7.81533 8.43674 7.8152 8.43674 7.81508C8.43674 7.81495 8.43674 7.81482 8.43674 7.8147C8.43674 7.81457 8.43674 7.81445 8.43674 7.81432C8.43674 7.81419 8.43674 7.81407 8.43674 7.81394C8.43674 7.81381 8.43674 7.81369 8.43674 7.81356C8.43674 7.81344 8.43674 7.81331 8.43674 7.81318C8.43674 7.81306 8.43674 7.81293 8.43674 7.8128C8.43674 7.81268 8.43674 7.81255 8.43674 7.81242C8.43674 7.8123 8.43674 7.81217 8.43674 7.81205C8.43674 7.81192 8.43674 7.81179 8.43674 7.81167C8.43674 7.81154 8.43674 7.81141 8.43674 7.81129C8.43674 7.81116 8.43674 7.81104 8.43674 7.81091C8.43674 7.81078 8.43674 7.81066 8.43674 7.81053C8.43674 7.8104 8.43674 7.81028 8.43674 7.81015C8.43674 7.81003 8.43674 7.8099 8.43674 7.80977C8.43674 7.80965 8.43674 7.80952 8.43674 7.80939C8.43674 7.80927 8.43674 7.80914 8.43674 7.80902C8.43674 7.80889 8.43674 7.80876 8.43674 7.80864C8.43674 7.80851 8.43674 7.80838 8.43674 7.80826C8.43674 7.80813 8.43674 7.80801 8.43674 7.80788C8.43674 7.80775 8.43674 7.80763 8.43674 7.8075C8.43674 7.80737 8.43674 7.80725 8.43674 7.80712C8.43674 7.80699 8.43674 7.80687 8.43674 7.80674C8.43674 7.80662 8.43674 7.80649 8.43674 7.80636C8.43674 7.80624 8.43674 7.80611 8.43674 7.80598C8.43674 7.80586 8.43674 7.80573 8.43674 7.80561C8.43674 7.80548 8.43674 7.80535 8.43674 7.80523C8.43674 7.8051 8.43674 7.80497 8.43674 7.80485C8.43674 7.80472 8.43674 7.8046 8.43674 7.80447C8.43674 7.80434 8.43674 7.80422 8.43674 7.80409C8.43674 7.80396 8.43674 7.80384 8.43674 7.80371C8.43674 7.80359 8.43674 7.80346 8.43674 7.80333C8.43674 7.80321 8.43674 7.80308 8.43674 7.80295C8.43674 7.80283 8.43674 7.8027 8.43674 7.80258C8.43674 7.80245 8.43674 7.80232 8.43674 7.8022C8.43674 7.80207 8.43674 7.80194 8.43674 7.80182C8.43674 7.80169 8.43674 7.80157 8.43674 7.80144C8.43674 7.80131 8.43674 7.80119 8.43674 7.80106C8.43674 7.80093 8.43674 7.80081 8.43674 7.80068C8.43674 7.80056 8.43674 7.80043 8.43674 7.8003C8.43674 7.80018 8.43674 7.80005 8.43674 7.79992C8.43674 7.7998 8.43674 7.79967 8.43674 7.79954C8.43674 7.79942 8.43674 7.79929 8.43674 7.79917C8.43674 7.79904 8.43674 7.79891 8.43674 7.79879C8.43674 7.79866 8.43674 7.79853 8.43674 7.79841C8.43674 7.79828 8.43674 7.79816 8.43674 7.79803C8.43674 7.7979 8.43674 7.79778 8.43674 7.79765C8.43674 7.79752 8.43674 7.7974 8.43674 7.79727C8.43674 7.79715 8.43674 7.79702 8.43674 7.79689C8.43674 7.79677 8.43674 7.79664 8.43674 7.79651C8.43674 7.79639 8.43674 7.79626 8.43674 7.79614C8.43674 7.79601 8.43674 7.79588 8.43674 7.79576C8.43674 7.79563 8.43674 7.7955 8.43674 7.79538C8.43674 7.79525 8.43674 7.79513 8.43674 7.795C8.43674 7.79487 8.43674 7.79475 8.43674 7.79462C8.43674 7.79449 8.43674 7.79437 8.43674 7.79424C8.43674 7.79412 8.43674 7.79399 8.43674 7.79386C8.43674 7.79374 8.43674 7.79361 8.43674 7.79348C8.43674 7.79336 8.43674 7.79323 8.43674 7.7931H6.93674ZM7.20403 7.41304C6.97706 7.60391 6.79634 7.84377 6.67545 8.11456L8.04516 8.72603C8.07359 8.66235 8.11609 8.60594 8.16946 8.56106L7.20403 7.41304ZM6.67545 8.11456C6.55456 8.38534 6.49665 8.68001 6.50609 8.97642L8.00533 8.92871C8.00311 8.85901 8.01673 8.78972 8.04516 8.72603L6.67545 8.11456ZM6.50687 8.91091C6.48346 9.33175 6.60319 9.74812 6.84656 10.0922L8.07123 9.22612C8.02346 9.15856 7.99996 9.07682 8.00455 8.99421L6.50687 8.91091ZM6.84656 10.0922C7.08993 10.4364 7.44261 10.688 7.8472 10.8061L8.26766 9.36625C8.18824 9.34306 8.11901 9.29367 8.07123 9.22612L6.84656 10.0922ZM7.34503 10.3207C7.66914 11.3054 8.22053 12.1999 8.95456 12.9319L10.0138 11.8698C9.44646 11.304 9.02032 10.6127 8.76983 9.8517L7.34503 10.3207ZM9.48416 12.4008C8.93087 12.9072 8.93078 12.9071 8.93069 12.907C8.93066 12.9069 8.93057 12.9068 8.93052 12.9068C8.93041 12.9067 8.93031 12.9066 8.93022 12.9065C8.93005 12.9063 8.9299 12.9061 8.9298 12.906C8.92959 12.9058 8.92954 12.9057 8.92962 12.9058C8.92979 12.906 8.93053 12.9068 8.93181 12.9082C8.93437 12.9111 8.93904 12.9164 8.94553 12.9239C8.95854 12.9389 8.97861 12.9625 9.00339 12.993C9.05359 13.055 9.11981 13.1414 9.18496 13.24C9.25123 13.3403 9.30838 13.4411 9.3474 13.5323C9.36653 13.577 9.37882 13.6137 9.38606 13.6421C9.39338 13.6708 9.39373 13.6841 9.39373 13.6839L10.8936 13.6609C10.8857 13.1484 10.6084 12.6733 10.4364 12.413C10.3377 12.2637 10.2407 12.1373 10.1686 12.0484C10.1322 12.0035 10.1014 11.9672 10.0788 11.9411C10.0674 11.9281 10.0581 11.9175 10.0511 11.9097C10.0476 11.9058 10.0447 11.9025 10.0424 11.9C10.0413 11.8987 10.0403 11.8976 10.0395 11.8967C10.039 11.8963 10.0387 11.8958 10.0383 11.8955C10.0382 11.8953 10.038 11.8951 10.0379 11.895C10.0378 11.8949 10.0377 11.8948 10.0376 11.8947C10.0375 11.8946 10.0374 11.8945 9.48416 12.4008ZM9.39426 13.7029C9.4138 14.1835 9.36449 14.412 9.24836 14.6002C9.11816 14.8112 8.83405 15.0824 8.12946 15.4665L8.84747 16.7835C9.62133 16.3616 10.1864 15.9366 10.5249 15.3879C10.8775 14.8164 10.9166 14.2217 10.893 13.6419L9.39426 13.7029ZM8.12885 15.4668C7.65835 15.7239 7.0962 15.9343 6.4243 16.1992C5.77502 16.4551 5.04983 16.7528 4.36007 17.1676C2.93616 18.0237 1.69075 19.3651 1.28321 21.8031L2.76269 22.0504C3.08791 20.1048 4.03 19.1163 5.13303 18.4531C5.70674 18.1081 6.32988 17.8487 6.97437 17.5947C7.59625 17.3496 8.27332 17.0972 8.84808 16.7831L8.12885 15.4668Z" fill="#333333"/>
</svg>
