<svg width="24" height="24" viewBox="0 0 24 24" fill="none" xmlns="http://www.w3.org/2000/svg">
<path opacity="0.7" d="M17.3687 4.9002C18.3687 5.9002 19.0687 7.20019 19.3687 8.60019C19.6687 10.0002 19.5688 11.5002 19.0688 12.8002C18.8688 13.3002 18.6688 13.7002 18.4688 14.1002C18.2687 14.5002 17.9688 14.9002 17.6688 15.2002L12.0687 21.4002L6.46875 15.2002C5.86875 14.5002 5.26875 13.7002 4.96875 12.8002C4.46875 11.5002 4.36875 10.0002 4.66875 8.60019C4.96875 7.20019 5.66875 5.9002 6.66875 4.9002C7.46875 4.2002 8.26875 3.6002 9.16875 3.3002C10.0688 2.9002 11.0687 2.7002 12.0687 2.7002C13.0687 2.7002 14.0688 2.9002 14.9688 3.3002C15.8687 3.6002 16.6687 4.2002 17.3687 4.9002ZM12.0687 6.8002C11.6687 6.8002 11.2688 6.9002 10.8688 7.0002C10.4688 7.2002 10.1688 7.4002 9.86875 7.7002C9.56875 8.0002 9.36875 8.3002 9.16875 8.7002C8.96875 9.2002 8.96875 9.6002 8.96875 10.0002C8.96875 10.8002 9.26875 11.6002 9.86875 12.2002C10.4688 12.8002 11.2687 13.1002 12.0687 13.1002C12.8687 13.1002 13.6688 12.8002 14.2688 12.2002C14.8688 11.6002 15.1688 10.8002 15.1688 10.0002C15.1688 9.6002 15.0688 9.2002 14.9688 8.8002C14.7687 8.4002 14.5688 8.1002 14.2688 7.8002C13.9688 7.5002 13.6688 7.3002 13.2688 7.1002C12.8688 6.9002 12.4687 6.8002 12.0687 6.8002Z" stroke="white"/>
</svg>
