<svg width="566" height="176" viewBox="0 0 566 176" fill="none" xmlns="http://www.w3.org/2000/svg">
<path d="M50.1 68.24H47.52V17H50.1V68.24ZM21.3 18.68C24.26 18.68 26.86 19.54 29.1 21.26C31.34 22.98 33.1 25.6 34.38 29.12C35.66 32.6 36.3 36.9 36.3 42.02C36.3 47.14 35.66 51.46 34.38 54.98C33.1 58.46 31.34 61.06 29.1 62.78C26.86 64.5 24.26 65.36 21.3 65.36C18.34 65.36 15.74 64.5 13.5 62.78C11.26 61.06 9.5 58.46 8.22 54.98C6.94 51.46 6.3 47.14 6.3 42.02C6.3 36.9 6.94 32.6 8.22 29.12C9.5 25.6 11.26 22.98 13.5 21.26C15.74 19.54 18.34 18.68 21.3 18.68ZM21.3 21.02C18.9 21.02 16.76 21.8 14.88 23.36C13 24.92 11.52 27.28 10.44 30.44C9.4 33.56 8.88 37.42 8.88 42.02C8.88 46.62 9.4 50.5 10.44 53.66C11.52 56.78 13 59.12 14.88 60.68C16.76 62.24 18.9 63.02 21.3 63.02C23.7 63.02 25.82 62.24 27.66 60.68C29.54 59.12 31.02 56.78 32.1 53.66C33.18 50.5 33.72 46.62 33.72 42.02C33.72 37.42 33.18 33.56 32.1 30.44C31.02 27.28 29.54 24.92 27.66 23.36C25.82 21.8 23.7 21.02 21.3 21.02ZM111.895 62.9V65.24H61.2548V62.9H85.1348V50H65.2148V33.5H105.655V21.74H65.2148V19.4H108.175V35.84H67.7348V47.66H109.075V50H87.6548V62.9H111.895ZM144.29 35.24C137.93 35.24 132.69 34.52 128.57 33.08C124.45 31.64 122.39 29.38 122.39 26.3C122.39 23.22 124.45 20.96 128.57 19.52C132.69 18.08 137.93 17.36 144.29 17.36C150.65 17.36 155.89 18.08 160.01 19.52C164.13 20.96 166.19 23.22 166.19 26.3C166.19 29.38 164.13 31.64 160.01 33.08C155.89 34.52 150.65 35.24 144.29 35.24ZM144.29 19.7C138.77 19.7 134.17 20.24 130.49 21.32C126.81 22.4 124.97 24.06 124.97 26.3C124.97 28.54 126.81 30.2 130.49 31.28C134.17 32.36 138.77 32.9 144.29 32.9C149.81 32.9 154.41 32.36 158.09 31.28C161.77 30.2 163.61 28.54 163.61 26.3C163.61 24.06 161.77 22.4 158.09 21.32C154.41 20.24 149.81 19.7 144.29 19.7ZM145.55 41.72V48.26H165.71V58.7H125.45V64.82H166.85V67.1H122.93V56.48H163.19V50.54H122.81V48.26H143.03V41.72H118.97V39.44H169.61V41.72H145.55ZM202.005 17.12C205.965 17.12 209.625 17.52 212.985 18.32C216.345 19.12 219.025 20.34 221.025 21.98C223.065 23.58 224.085 25.54 224.085 27.86C224.085 30.18 223.065 32.16 221.025 33.8C219.025 35.4 216.345 36.6 212.985 37.4C209.625 38.2 205.965 38.6 202.005 38.6C198.045 38.6 194.385 38.2 191.025 37.4C187.665 36.6 184.965 35.4 182.925 33.8C180.925 32.16 179.925 30.18 179.925 27.86C179.925 25.54 180.925 23.58 182.925 21.98C184.965 20.34 187.665 19.12 191.025 18.32C194.385 17.52 198.045 17.12 202.005 17.12ZM202.005 19.46C198.605 19.46 195.405 19.78 192.405 20.42C189.445 21.06 187.045 22.02 185.205 23.3C183.405 24.58 182.505 26.1 182.505 27.86C182.505 29.62 183.405 31.14 185.205 32.42C187.045 33.7 189.445 34.66 192.405 35.3C195.405 35.94 198.605 36.26 202.005 36.26C205.405 36.26 208.585 35.94 211.545 35.3C214.545 34.66 216.945 33.7 218.745 32.42C220.585 31.14 221.505 29.62 221.505 27.86C221.505 26.1 220.585 24.58 218.745 23.3C216.945 22.02 214.545 21.06 211.545 20.42C208.585 19.78 205.405 19.46 202.005 19.46ZM227.325 47.24H176.685V44.9H227.325V47.24ZM183.285 64.76H224.505V67.1H180.765V53.06H183.285V64.76ZM236.859 73.88H234.639L236.319 62.24H239.079L236.859 73.88ZM267.912 19.22V66.62H265.332V19.22H267.912ZM315.87 21.62H297.57V66.62H294.99V21.62H276.63V19.22H315.87V21.62ZM385.606 68.24H383.086V17H385.606V68.24ZM369.406 30.5C369.406 37.26 368.306 43.2 366.106 48.32C363.906 53.44 360.726 57.4 356.566 60.2C352.446 63 347.566 64.4 341.926 64.4V62C346.966 62 351.366 60.74 355.126 58.22C358.886 55.66 361.786 52.02 363.826 47.3C365.866 42.58 366.886 37.06 366.886 30.74V21.74H341.926V19.4H369.406V30.5ZM421.601 24.56C418.961 27.52 415.541 29.9 411.341 31.7C407.181 33.46 403.081 34.4 399.041 34.52V32.12C402.441 32 405.881 31.26 409.361 29.9C412.881 28.5 415.921 26.6 418.481 24.2C421.081 21.76 422.741 19.02 423.461 15.98L425.921 16.46C425.481 18.58 424.561 20.64 423.161 22.64L445.181 32.66L444.221 34.7L421.601 24.56ZM423.401 41.72V48.26H443.561V58.7H403.301V64.82H444.701V67.1H400.781V56.48H441.041V50.54H400.661V48.26H420.881V41.72H396.821V39.44H447.461V41.72H423.401ZM505.176 62.9V65.24H454.536V62.9H478.416V50H458.496V33.5H498.936V21.74H458.496V19.4H501.456V35.84H461.016V47.66H502.356V50H480.936V62.9H505.176ZM51.48 105V156.24H48.96V105H51.48ZM36.48 105.36H39V155.34H36.48V126.36H26.34V124.02H36.48V105.36ZM19.32 106.56C19.24 115.52 18.86 122.7 18.18 128.1L31.14 150.42L29.04 151.8L17.58 131.88C16.54 137.72 14.96 142.34 12.84 145.74C10.72 149.1 7.9 151.4 4.38 152.64V150.12C7.62 148.84 10.14 146.3 11.94 142.5C13.74 138.66 14.98 133.82 15.66 127.98C16.38 122.1 16.76 114.94 16.8 106.5L19.32 106.56ZM114.415 116.34V118.68H106.315V133.44H103.795V105H106.315V116.34H114.415ZM78.1148 119.34C76.4748 122.58 74.2348 125.28 71.3948 127.44C68.5948 129.56 65.2948 131 61.4948 131.76V129.36C65.0948 128.6 68.1748 127.08 70.7348 124.8C73.2948 122.48 75.2348 119.68 76.5548 116.4C77.9148 113.08 78.5948 109.52 78.5948 105.72L81.1148 105.84C81.1148 110 80.4348 113.76 79.0748 117.12L96.5948 128.64L95.2148 130.62L78.1148 119.34ZM86.2748 135.84C92.5548 135.84 97.6148 136.66 101.455 138.3C105.335 139.94 107.275 142.44 107.275 145.8C107.275 149.16 105.335 151.66 101.455 153.3C97.6148 154.94 92.5548 155.76 86.2748 155.76C79.9948 155.76 74.9148 154.94 71.0348 153.3C67.1948 151.66 65.2748 149.16 65.2748 145.8C65.2748 142.44 67.1948 139.94 71.0348 138.3C74.9148 136.66 79.9948 135.84 86.2748 135.84ZM86.2748 153.42C91.7148 153.42 96.1348 152.76 99.5348 151.44C102.975 150.16 104.695 148.28 104.695 145.8C104.695 143.32 102.975 141.44 99.5348 140.16C96.1348 138.84 91.7148 138.18 86.2748 138.18C80.8348 138.18 76.3948 138.84 72.9548 140.16C69.5548 141.44 67.8548 143.32 67.8548 145.8C67.8548 148.28 69.5548 150.16 72.9548 151.44C76.3948 152.76 80.8348 153.42 86.2748 153.42ZM144.29 105.36C150.65 105.36 155.89 106.08 160.01 107.52C164.13 108.96 166.19 111.22 166.19 114.3C166.19 117.38 164.13 119.64 160.01 121.08C155.89 122.52 150.65 123.24 144.29 123.24C137.93 123.24 132.69 122.52 128.57 121.08C124.45 119.64 122.39 117.38 122.39 114.3C122.39 111.22 124.45 108.96 128.57 107.52C132.69 106.08 137.93 105.36 144.29 105.36ZM144.29 107.64C138.77 107.64 134.17 108.18 130.49 109.26C126.81 110.34 124.97 112.02 124.97 114.3C124.97 116.58 126.81 118.26 130.49 119.34C134.17 120.42 138.77 120.96 144.29 120.96C149.81 120.96 154.41 120.42 158.09 119.34C161.77 118.26 163.61 116.58 163.61 114.3C163.61 112.02 161.77 110.34 158.09 109.26C154.41 108.18 149.81 107.64 144.29 107.64ZM169.61 130.14H118.97V127.86H169.61V130.14ZM165.71 146.7H125.45V152.82H166.85V155.1H122.93V144.48H163.19V138.54H122.81V136.26H165.71V146.7ZM240.061 156.24H237.481V105H240.061V156.24ZM211.261 106.68C214.221 106.68 216.821 107.54 219.061 109.26C221.301 110.98 223.061 113.6 224.341 117.12C225.621 120.6 226.261 124.9 226.261 130.02C226.261 135.14 225.621 139.46 224.341 142.98C223.061 146.46 221.301 149.06 219.061 150.78C216.821 152.5 214.221 153.36 211.261 153.36C208.301 153.36 205.701 152.5 203.461 150.78C201.221 149.06 199.461 146.46 198.181 142.98C196.901 139.46 196.261 135.14 196.261 130.02C196.261 124.9 196.901 120.6 198.181 117.12C199.461 113.6 201.221 110.98 203.461 109.26C205.701 107.54 208.301 106.68 211.261 106.68ZM211.261 109.02C208.861 109.02 206.721 109.8 204.841 111.36C202.961 112.92 201.481 115.28 200.401 118.44C199.361 121.56 198.841 125.42 198.841 130.02C198.841 134.62 199.361 138.5 200.401 141.66C201.481 144.78 202.961 147.12 204.841 148.68C206.721 150.24 208.861 151.02 211.261 151.02C213.661 151.02 215.781 150.24 217.621 148.68C219.501 147.12 220.981 144.78 222.061 141.66C223.141 138.5 223.681 134.62 223.681 130.02C223.681 125.42 223.141 121.56 222.061 118.44C220.981 115.28 219.501 112.92 217.621 111.36C215.781 109.8 213.661 109.02 211.261 109.02ZM301.856 131.94V134.22H251.216V131.94H275.276V125.52H255.476V114.66H295.376V108.42H255.476V106.14H297.836V116.88H257.936V123.24H298.676V125.52H277.796V131.94H301.856ZM295.316 137.94H297.836V155.1H255.296V137.94H257.816V143.88H295.316V137.94ZM295.316 152.82V146.1H257.816V152.82H295.316ZM356.871 105V156.24H354.351V105H356.871ZM341.931 105.36H344.451V155.34H341.931V129.48H330.231C329.071 136.4 326.771 141.96 323.331 146.16C319.891 150.32 315.611 152.4 310.491 152.4V150C314.091 150 317.251 148.72 319.971 146.16C322.691 143.6 324.771 140.06 326.211 135.54C327.691 130.98 328.431 125.86 328.431 120.18V109.74H310.491V107.4H330.951V119.94C330.951 122.62 330.811 125.02 330.531 127.14H341.931V105.36ZM418.202 112.62H383.582V110.28H399.602V104.1H402.122V110.28H418.202V112.62ZM436.622 119.7H428.522V134.34H426.002V105H428.522V117.36H436.622V119.7ZM400.862 134.22C398.062 134.22 395.542 133.84 393.302 133.08C391.102 132.32 389.382 131.26 388.142 129.9C386.902 128.54 386.282 127 386.282 125.28C386.282 123.56 386.902 122.02 388.142 120.66C389.382 119.3 391.102 118.24 393.302 117.48C395.542 116.72 398.062 116.34 400.862 116.34C403.662 116.34 406.162 116.72 408.362 117.48C410.602 118.24 412.342 119.3 413.582 120.66C414.822 122.02 415.442 123.56 415.442 125.28C415.442 127 414.822 128.54 413.582 129.9C412.342 131.26 410.602 132.32 408.362 133.08C406.162 133.84 403.662 134.22 400.862 134.22ZM400.862 118.62C398.462 118.62 396.342 118.92 394.502 119.52C392.662 120.12 391.242 120.92 390.242 121.92C389.282 122.92 388.802 124.04 388.802 125.28C388.802 126.52 389.282 127.64 390.242 128.64C391.242 129.64 392.662 130.44 394.502 131.04C396.342 131.64 398.462 131.94 400.862 131.94C403.262 131.94 405.382 131.64 407.222 131.04C409.062 130.44 410.462 129.64 411.422 128.64C412.422 127.64 412.922 126.52 412.922 125.28C412.922 124.04 412.422 122.92 411.422 121.92C410.462 120.92 409.062 120.12 407.222 119.52C405.382 118.92 403.262 118.62 400.862 118.62ZM426.002 136.8H428.522V155.04H387.542V136.8H390.062V143.22H426.002V136.8ZM426.002 152.76V145.44H390.062V152.76H426.002ZM487.677 156.24L485.097 156.3V105H487.677V156.24ZM447.237 150.24H465.477C467.877 150.24 470.297 150.02 472.737 149.58C475.177 149.1 477.177 148.48 478.737 147.72V150.12C477.177 150.88 475.197 151.48 472.797 151.92C470.397 152.4 467.957 152.64 465.477 152.64H444.717V107.1H447.237V150.24ZM552.052 129.78H543.952V156.24H541.432V105H543.952V127.44H552.052V129.78ZM522.052 150.3C524.452 150.3 526.852 150.06 529.252 149.58C531.692 149.1 533.712 148.48 535.312 147.72V150.18C533.752 150.94 531.772 151.54 529.372 151.98C526.972 152.42 524.532 152.64 522.052 152.64H501.892V107.4H531.292V109.74H504.412V150.3H522.052ZM559.486 150C560.286 150 560.946 150.28 561.466 150.84C562.026 151.4 562.306 152.06 562.306 152.82C562.306 153.62 562.026 154.28 561.466 154.8C560.946 155.36 560.286 155.64 559.486 155.64C558.726 155.64 558.066 155.36 557.506 154.8C556.946 154.28 556.666 153.62 556.666 152.82C556.666 152.06 556.946 151.4 557.506 150.84C558.066 150.28 558.726 150 559.486 150Z" fill="#151515"/>
</svg>
