<svg width="91" height="60" viewBox="0 0 91 60" fill="none" xmlns="http://www.w3.org/2000/svg">
<rect x="0.5" y="1.5" width="65" height="46" rx="1.5" fill="white" stroke="#333333"/>
<rect x="1" y="39" width="64" height="8" fill="#EEEEEE"/>
<rect x="1" y="38" width="65" height="1" fill="#333333"/>
<rect x="18" y="57" width="30" height="1" fill="#333333"/>
<path d="M37.2616 47.5L39.3828 57.5H26.6172L28.7384 47.5H37.2616Z" fill="#EEEEEE" stroke="#333333"/>
<circle cx="73" cy="42" r="17.5" fill="white" stroke="#333333"/>
<path fill-rule="evenodd" clip-rule="evenodd" d="M75.6111 37.1111C75.6111 38.277 74.6659 39.2222 73.5 39.2222C72.3341 39.2222 71.3889 38.277 71.3889 37.1111C71.3889 35.9452 72.3341 35 73.5 35C74.6659 35 75.6111 35.9452 75.6111 37.1111ZM76.6111 37.1111C76.6111 38.8293 75.2182 40.2222 73.5 40.2222C71.7818 40.2222 70.3889 38.8293 70.3889 37.1111C70.3889 35.3929 71.7818 34 73.5 34C75.2182 34 76.6111 35.3929 76.6111 37.1111ZM71.9444 42.0556C68.6614 42.0556 66 44.717 66 48H67C67 45.2693 69.2137 43.0556 71.9444 43.0556H75.0556C77.7863 43.0556 80 45.2693 80 48H81C81 44.717 78.3386 42.0556 75.0556 42.0556H71.9444Z" fill="#333333"/>
</svg>
