<svg width="197" height="37" viewBox="0 0 197 37" fill="none" xmlns="http://www.w3.org/2000/svg">
<path d="M12.448 4.16C14.368 4.16 16.1067 4.52267 17.664 5.248C19.2213 5.97333 20.4587 6.98667 21.376 8.288C22.3147 9.568 22.8267 11.0293 22.912 12.672H16.896C16.7253 11.52 16.224 10.624 15.392 9.984C14.56 9.344 13.4507 9.024 12.064 9.024C10.7413 9.024 9.70667 9.26933 8.96 9.76C8.21333 10.2293 7.84 10.8693 7.84 11.68C7.84 12.32 8.07467 12.8427 8.544 13.248C9.01333 13.6533 9.728 14.016 10.688 14.336C11.6693 14.6347 13.088 14.976 14.944 15.36C17.824 15.9573 19.8827 16.9493 21.12 18.336C22.3787 19.7013 23.008 21.4187 23.008 23.488C23.008 25.1093 22.5387 26.528 21.6 27.744C20.6827 28.96 19.424 29.888 17.824 30.528C16.224 31.1893 14.4427 31.52 12.48 31.52C10.3467 31.52 8.42667 31.1467 6.72 30.4C5.03467 29.6747 3.69067 28.6293 2.688 27.264C1.70667 25.8987 1.17333 24.2987 1.088 22.464H7.072C7.24267 23.7227 7.84 24.736 8.864 25.504C9.90933 26.2507 11.2533 26.624 12.896 26.624C14.0907 26.624 15.072 26.3573 15.84 25.824C16.6293 25.2907 17.024 24.5973 17.024 23.744C17.024 23.0613 16.8107 22.496 16.384 22.048C15.9787 21.6 15.3173 21.216 14.4 20.896C13.504 20.576 12.2453 20.2667 10.624 19.968C7.70133 19.4133 5.51467 18.4853 4.064 17.184C2.61333 15.8827 1.888 14.048 1.888 11.68C1.888 10.144 2.34667 8.81067 3.264 7.68C4.20267 6.54933 5.472 5.68533 7.072 5.088C8.672 4.46933 10.464 4.16 12.448 4.16ZM39.357 31.52C36.6903 31.52 34.2797 30.9227 32.125 29.728C29.9917 28.5547 28.317 26.9333 27.101 24.864C25.885 22.7733 25.277 20.4267 25.277 17.824C25.277 15.2213 25.885 12.8853 27.101 10.816C28.317 8.72533 29.9917 7.09333 32.125 5.92C34.2797 4.72533 36.6903 4.128 39.357 4.128C42.0237 4.128 44.4237 4.72533 46.557 5.92C48.7117 7.09333 50.397 8.72533 51.613 10.816C52.829 12.8853 53.437 15.2213 53.437 17.824C53.437 20.4267 52.829 22.7733 51.613 24.864C50.397 26.9333 48.7117 28.5547 46.557 29.728C44.4237 30.9227 42.0237 31.52 39.357 31.52ZM39.357 26.272C40.9143 26.272 42.3223 25.9093 43.581 25.184C44.8397 24.4587 45.821 23.456 46.525 22.176C47.2503 20.8747 47.613 19.424 47.613 17.824C47.613 16.2027 47.2503 14.752 46.525 13.472C45.821 12.192 44.8397 11.1893 43.581 10.464C42.3223 9.73867 40.9143 9.376 39.357 9.376C37.7997 9.376 36.3917 9.73867 35.133 10.464C33.8743 11.1893 32.8823 12.192 32.157 13.472C31.453 14.752 31.101 16.2027 31.101 17.824C31.101 19.424 31.453 20.8747 32.157 22.176C32.8823 23.456 33.8743 24.4587 35.133 25.184C36.3917 25.9093 37.7997 26.272 39.357 26.272ZM62.7218 4.8V25.728H75.7458V30.88H56.8978V4.8H62.7218ZM77.484 4.8H83.308V19.328C83.308 21.4187 83.852 23.104 84.94 24.384C86.0493 25.6427 87.5427 26.272 89.42 26.272C91.2973 26.272 92.78 25.6427 93.868 24.384C94.9773 23.104 95.532 21.4187 95.532 19.328V4.8H101.356V19.328C101.356 21.76 100.855 23.904 99.852 25.76C98.8707 27.5947 97.4733 29.0133 95.66 30.016C93.868 31.0187 91.788 31.52 89.42 31.52C87.052 31.52 84.9613 31.0187 83.148 30.016C81.356 29.0133 79.9587 27.5947 78.956 25.76C77.9747 23.904 77.484 21.76 77.484 19.328V4.8ZM126.96 9.952H118.48V30.88H112.656V9.952H104.176V4.8H126.96V9.952ZM135.909 4.8V30.88H130.085V4.8H135.909ZM153.451 31.52C150.784 31.52 148.373 30.9227 146.219 29.728C144.085 28.5547 142.411 26.9333 141.195 24.864C139.979 22.7733 139.371 20.4267 139.371 17.824C139.371 15.2213 139.979 12.8853 141.195 10.816C142.411 8.72533 144.085 7.09333 146.219 5.92C148.373 4.72533 150.784 4.128 153.451 4.128C156.117 4.128 158.517 4.72533 160.651 5.92C162.805 7.09333 164.491 8.72533 165.707 10.816C166.923 12.8853 167.531 15.2213 167.531 17.824C167.531 20.4267 166.923 22.7733 165.707 24.864C164.491 26.9333 162.805 28.5547 160.651 29.728C158.517 30.9227 156.117 31.52 153.451 31.52ZM153.451 26.272C155.008 26.272 156.416 25.9093 157.675 25.184C158.933 24.4587 159.915 23.456 160.619 22.176C161.344 20.8747 161.707 19.424 161.707 17.824C161.707 16.2027 161.344 14.752 160.619 13.472C159.915 12.192 158.933 11.1893 157.675 10.464C156.416 9.73867 155.008 9.376 153.451 9.376C151.893 9.376 150.485 9.73867 149.227 10.464C147.968 11.1893 146.976 12.192 146.251 13.472C145.547 14.752 145.195 16.2027 145.195 17.824C145.195 19.424 145.547 20.8747 146.251 22.176C146.976 23.456 147.968 24.4587 149.227 25.184C150.485 25.9093 151.893 26.272 153.451 26.272ZM170.992 4.8H175.856L188.88 20.48V4.48H194.704V30.56H189.84L176.816 14.88V30.88H170.992V4.8Z" fill="#151515"/>
</svg>
