<svg width="924" height="300" viewBox="0 0 924 300" fill="none" xmlns="http://www.w3.org/2000/svg">
<path d="M93.9294 247.301C81.5859 236.721 72.7691 223.496 67.1011 206.996C70.124 195.408 71.8874 182.687 72.2653 168.454H55.3874C54.8836 204.855 44.5553 232.565 24.5286 251.584L36.7462 261.534C46.4446 251.584 54.5057 239.996 60.5515 226.393C66.2195 238.611 73.5248 249.191 83.0973 258.637L93.9294 247.301ZM80.9561 214.805H98.4637V274.382H114.838V165.683H98.4637V200.446H80.9561V214.805ZM138.139 277.153V164.424H121.513V277.153H138.139ZM212.621 224.882C191.46 224.882 176.22 236.343 176.22 252.717C176.22 269.092 191.46 280.553 212.621 280.553C233.781 280.553 249.021 269.092 249.021 252.717C249.021 236.343 233.781 224.882 212.621 224.882ZM225.972 207.626C212.998 203.847 201.033 198.053 193.727 187.221C196.372 180.798 197.884 173.744 198.136 166.187H181.006C179.872 188.985 166.017 204.981 144.101 212.538L154.43 224.882C166.017 220.599 177.857 212.034 186.422 200.321C194.609 210.397 205.819 217.324 216.777 220.725L225.972 207.626ZM249.399 226.015V200.572H262.75V186.214H249.399V164.424H232.521V226.015H249.399ZM212.621 266.698C200.025 266.698 193.098 261.03 193.098 252.717C193.098 244.405 200.025 238.737 212.621 238.737C225.216 238.737 232.143 244.405 232.143 252.717C232.143 261.03 225.216 266.698 212.621 266.698ZM284.205 183.946C284.205 198.683 300.957 208.256 322.495 208.256C344.033 208.256 360.785 198.683 360.785 183.946C360.785 169.21 344.033 159.637 322.495 159.637C300.957 159.637 284.205 169.21 284.205 183.946ZM322.495 172.737C334.335 172.737 343.907 177.145 343.907 183.946C343.907 190.748 334.335 195.156 322.495 195.156C310.655 195.156 301.083 190.748 301.083 183.946C301.083 177.145 310.655 172.737 322.495 172.737ZM377.915 225.511V212.412H267.075V225.511H377.915ZM368.972 276.523V264.053H295.289V259.393H366.327V231.179H278.411V243.523H349.449V248.057H278.411V276.523H368.972ZM626.78 208.004C626.78 185.458 611.161 169.462 590.253 169.462C569.344 169.462 553.726 185.458 553.726 208.004C553.726 230.55 569.344 246.546 590.253 246.546C611.161 246.546 626.78 230.55 626.78 208.004ZM609.902 208.004C609.902 222.614 601.841 232.187 590.253 232.187C578.665 232.187 570.604 222.614 570.604 208.004C570.604 193.393 578.665 183.821 590.253 183.821C601.841 183.821 609.902 193.393 609.902 208.004ZM656.253 277.279V164.424H639.375V277.279H656.253ZM770.913 212.538V199.565H699.12V194.905H769.024V165.683H682.242V178.53H752.146V183.065H682.242V212.538H717.761V218.71H670.276V231.557H781.116V218.71H734.891V212.538H770.913ZM769.528 276.523V235.21H752.65V243.397H698.49V235.21H681.612V276.523H769.528ZM752.65 262.92H698.49V255.992H752.65V262.92ZM794.257 183.946H826.124C824.864 207.626 810.883 233.321 787.582 250.45L799.547 261.408C824.234 241.634 843.883 210.901 843.757 169.588H794.257V183.946ZM840.608 222.74H855.345V274.382H871.719V165.683H855.345V208.13H840.608V222.74ZM895.65 277.153V164.424H879.024V277.153H895.65Z" fill="white"/>
<rect x="432" y="188" width="20" height="20" fill="#FFD029"/>
<rect x="462" y="218" width="20" height="20" fill="white"/>
<rect x="492" y="248" width="20" height="20" fill="#FFD029"/>
<path d="M247.617 17.2748H230.991V113H247.617V17.2748ZM287.281 113H303.907V31.3817H334.64V17.2748H256.548V31.3817H287.281V113ZM466.554 122.698V9.84351H449.676V122.698H466.554ZM370.955 28.7366H415.039C412.771 54.5573 395.138 80.5038 365.79 94.6107L376.622 106.576C407.985 89.8244 433.428 58.084 432.924 14.3779H370.955V28.7366ZM583.733 121.943V109.221H510.05V104.309H581.088V75.3397H545.821V68.2863H592.676V54.9351H481.837V68.2863H528.691V75.3397H493.172V87.9351H564.211V92.7214H493.172V121.943H583.733ZM492.417 51.1565C507.279 49.8969 525.417 44.355 537.13 34.0267C548.718 43.7252 565.974 49.645 581.718 50.2748L589.275 37.6794C571.138 36.4198 555.52 32.2634 545.695 23.4466C547.837 19.416 549.222 14.8817 549.474 9.71756H532.092C530.959 27.6031 510.05 35.916 485.111 38.4351L492.417 51.1565ZM711.619 114.385V100.027H665.394V82.5191H701.417V68.0344H629.623V55.187H699.528V14.126H612.745V28.4847H682.776V40.8282H612.745V82.5191H648.264V100.027H600.78V114.385H711.619Z" fill="white"/>
</svg>
