<?xml version="1.0" encoding="utf-8"?>
<!-- Generator: Adobe Illustrator 26.0.2, SVG Export Plug-In . SVG Version: 6.00 Build 0)  -->
<svg version="1.1" id="레이어_1" xmlns="http://www.w3.org/2000/svg" xmlns:xlink="http://www.w3.org/1999/xlink" x="0px"
	 y="0px" viewBox="0 0 40 40" style="enable-background:new 0 0 40 40;" xml:space="preserve">
<style type="text/css">
	.st0{fill:#F57F35;stroke:#151515;}
</style>
<path class="st0" d="M20.3,10.7c-0.7,0-1.4,0.1-2,0.4c-0.6,0.3-1.2,0.7-1.7,1.1c-0.5,0.5-0.9,1.1-1.1,1.7c-0.3,0.6-0.4,1.3-0.4,2
	c0,1.4,0.6,2.7,1.5,3.7c1,1,2.3,1.5,3.7,1.5c1.4,0,2.7-0.6,3.7-1.5c1-1,1.5-2.3,1.5-3.7c0-0.7-0.1-1.4-0.4-2
	c-0.3-0.6-0.6-1.2-1.1-1.7c-0.5-0.5-1.1-0.9-1.7-1.1C21.7,10.8,21,10.7,20.3,10.7z M20.3,37.1L10.1,25.6h0l0,0
	c-0.6-0.6-1.1-1.3-1.6-2.1C8,22.8,7.6,22,7.3,21.1c-0.9-2.5-1.1-5.2-0.5-7.7c0.6-2.6,1.9-4.9,3.7-6.8l0,0c1.3-1.3,2.8-2.3,4.5-3
	c1.7-0.7,3.5-1.1,5.3-1.1s3.6,0.4,5.3,1.1c1.7,0.7,3.2,1.7,4.5,3c1.9,1.9,3.2,4.2,3.7,6.8c0.6,2.6,0.4,5.3-0.5,7.7
	c-0.3,0.8-0.7,1.6-1.2,2.4c-0.5,0.7-1,1.4-1.6,2.1l0,0l0,0L20.3,37.1z"/>
</svg>
