<svg width="196" height="37" viewBox="0 0 196 37" fill="none" xmlns="http://www.w3.org/2000/svg">
<path d="M18.272 25.824H8.16001L6.33601 30.88H0.320007L10.432 4.79999H16.48L26.592 30.88H20.096L18.272 25.824ZM16.48 20.768L13.216 11.68L9.95201 20.768H16.48Z" fill="#151515"/>
<path d="M29.2103 4.79999H40.5383C43.3969 4.79999 45.6156 5.49332 47.1943 6.87999C48.7943 8.26666 49.5943 10.1653 49.5943 12.576C49.5943 13.536 49.3063 14.4747 48.7303 15.392C48.1543 16.288 47.4289 16.896 46.5543 17.216C47.7916 17.6213 48.8049 18.368 49.5943 19.456C50.4049 20.5227 50.8103 21.696 50.8103 22.976C50.8103 24.576 50.4369 25.9733 49.6903 27.168C48.9649 28.3627 47.8983 29.28 46.4903 29.92C45.0823 30.56 43.4183 30.88 41.4983 30.88H29.2103V4.79999ZM40.2823 15.36C41.3916 15.36 42.2449 15.1253 42.8423 14.656C43.4609 14.1653 43.7703 13.472 43.7703 12.576C43.7703 11.6587 43.4609 10.9653 42.8423 10.496C42.2449 10.0053 41.3916 9.75999 40.2823 9.75999H35.0343V15.36H40.2823ZM41.2423 25.92C42.4156 25.92 43.3329 25.664 43.9943 25.152C44.6556 24.64 44.9863 23.9147 44.9863 22.976C44.9863 22.0373 44.6556 21.312 43.9943 20.8C43.3329 20.288 42.4156 20.032 41.2423 20.032H35.0343V25.92H41.2423Z" fill="#151515"/>
<path d="M67.1695 31.52C64.5028 31.52 62.0922 30.9227 59.9375 29.728C57.8042 28.5547 56.1295 26.9333 54.9135 24.864C53.6975 22.7733 53.0895 20.4267 53.0895 17.824C53.0895 15.2213 53.6975 12.8853 54.9135 10.816C56.1295 8.72532 57.8042 7.09332 59.9375 5.91999C62.0922 4.72532 64.5028 4.12799 67.1695 4.12799C69.8362 4.12799 72.2362 4.72532 74.3695 5.91999C76.5242 7.09332 78.2095 8.72532 79.4255 10.816C80.6415 12.8853 81.2495 15.2213 81.2495 17.824C81.2495 20.4267 80.6415 22.7733 79.4255 24.864C78.2095 26.9333 76.5242 28.5547 74.3695 29.728C72.2362 30.9227 69.8362 31.52 67.1695 31.52ZM67.1695 26.272C68.7268 26.272 70.1348 25.9093 71.3935 25.184C72.6522 24.4587 73.6335 23.456 74.3375 22.176C75.0628 20.8747 75.4255 19.424 75.4255 17.824C75.4255 16.2027 75.0628 14.752 74.3375 13.472C73.6335 12.192 72.6522 11.1893 71.3935 10.464C70.1348 9.73866 68.7268 9.37599 67.1695 9.37599C65.6122 9.37599 64.2042 9.73866 62.9455 10.464C61.6868 11.1893 60.6948 12.192 59.9695 13.472C59.2655 14.752 58.9135 16.2027 58.9135 17.824C58.9135 19.424 59.2655 20.8747 59.9695 22.176C60.6948 23.456 61.6868 24.4587 62.9455 25.184C64.2042 25.9093 65.6122 26.272 67.1695 26.272Z" fill="#151515"/>
<path d="M84.3903 4.79999H90.2143V19.328C90.2143 21.4187 90.7583 23.104 91.8463 24.384C92.9556 25.6427 94.4489 26.272 96.3263 26.272C98.2036 26.272 99.6863 25.6427 100.774 24.384C101.884 23.104 102.438 21.4187 102.438 19.328V4.79999H108.262V19.328C108.262 21.76 107.761 23.904 106.758 25.76C105.777 27.5947 104.38 29.0133 102.566 30.016C100.774 31.0187 98.6943 31.52 96.3263 31.52C93.9583 31.52 91.8676 31.0187 90.0543 30.016C88.2623 29.0133 86.8649 27.5947 85.8623 25.76C84.8809 23.904 84.3903 21.76 84.3903 19.328V4.79999Z" fill="#151515"/>
<path d="M133.866 9.95199H125.386V30.88H119.562V9.95199H111.082V4.79999H133.866V9.95199Z" fill="#151515"/>
<path d="M145.64 4.79999H151.464V19.328C151.464 21.4187 152.008 23.104 153.096 24.384C154.206 25.6427 155.699 26.272 157.576 26.272C159.454 26.272 160.936 25.6427 162.024 24.384C163.134 23.104 163.688 21.4187 163.688 19.328V4.79999H169.512V19.328C169.512 21.76 169.011 23.904 168.008 25.76C167.027 27.5947 165.63 29.0133 163.816 30.016C162.024 31.0187 159.944 31.52 157.576 31.52C155.208 31.52 153.118 31.0187 151.304 30.016C149.512 29.0133 148.115 27.5947 147.112 25.76C146.131 23.904 145.64 21.76 145.64 19.328V4.79999Z" fill="#151515"/>
<path d="M183.948 4.15999C185.868 4.15999 187.607 4.52266 189.164 5.24799C190.721 5.97332 191.959 6.98666 192.876 8.28799C193.815 9.56799 194.327 11.0293 194.412 12.672H188.396C188.225 11.52 187.724 10.624 186.892 9.98399C186.06 9.34399 184.951 9.02399 183.564 9.02399C182.241 9.02399 181.207 9.26932 180.46 9.75999C179.713 10.2293 179.34 10.8693 179.34 11.68C179.34 12.32 179.575 12.8427 180.044 13.248C180.513 13.6533 181.228 14.016 182.188 14.336C183.169 14.6347 184.588 14.976 186.444 15.36C189.324 15.9573 191.383 16.9493 192.62 18.336C193.879 19.7013 194.508 21.4187 194.508 23.488C194.508 25.1093 194.039 26.528 193.1 27.744C192.183 28.96 190.924 29.888 189.324 30.528C187.724 31.1893 185.943 31.52 183.98 31.52C181.847 31.52 179.927 31.1467 178.22 30.4C176.535 29.6747 175.191 28.6293 174.188 27.264C173.207 25.8987 172.673 24.2987 172.588 22.464H178.572C178.743 23.7227 179.34 24.736 180.364 25.504C181.409 26.2507 182.753 26.624 184.396 26.624C185.591 26.624 186.572 26.3573 187.34 25.824C188.129 25.2907 188.524 24.5973 188.524 23.744C188.524 23.0613 188.311 22.496 187.884 22.048C187.479 21.6 186.817 21.216 185.9 20.896C185.004 20.576 183.745 20.2667 182.124 19.968C179.201 19.4133 177.015 18.4853 175.564 17.184C174.113 15.8827 173.388 14.048 173.388 11.68C173.388 10.144 173.847 8.81066 174.764 7.67999C175.703 6.54932 176.972 5.68532 178.572 5.08799C180.172 4.46932 181.964 4.15999 183.948 4.15999Z" fill="#151515"/>
</svg>
