<svg width="166" height="37" viewBox="0 0 166 37" fill="none" xmlns="http://www.w3.org/2000/svg">
<path d="M25.472 4.79999V30.88H19.648V20.288H8.128V30.88H2.304V4.79999H8.128V15.136H19.648V4.79999H25.472Z" fill="#151515"/>
<path d="M35.9092 4.79999V30.88H30.0853V4.79999H35.9092Z" fill="#151515"/>
<path d="M50.6668 4.15999C52.5868 4.15999 54.3254 4.52266 55.8828 5.24799C57.4401 5.97332 58.6774 6.98666 59.5947 8.28799C60.5334 9.56799 61.0454 11.0293 61.1308 12.672H55.1147C54.9441 11.52 54.4428 10.624 53.6108 9.98399C52.7788 9.34399 51.6694 9.02399 50.2827 9.02399C48.9601 9.02399 47.9254 9.26932 47.1787 9.75999C46.4321 10.2293 46.0588 10.8693 46.0588 11.68C46.0588 12.32 46.2934 12.8427 46.7627 13.248C47.2321 13.6533 47.9468 14.016 48.9067 14.336C49.8881 14.6347 51.3068 14.976 53.1628 15.36C56.0428 15.9573 58.1014 16.9493 59.3388 18.336C60.5974 19.7013 61.2268 21.4187 61.2268 23.488C61.2268 25.1093 60.7574 26.528 59.8187 27.744C58.9014 28.96 57.6427 29.888 56.0428 30.528C54.4427 31.1893 52.6614 31.52 50.6987 31.52C48.5654 31.52 46.6454 31.1467 44.9388 30.4C43.2534 29.6747 41.9094 28.6293 40.9067 27.264C39.9254 25.8987 39.3921 24.2987 39.3068 22.464H45.2907C45.4614 23.7227 46.0588 24.736 47.0827 25.504C48.1281 26.2507 49.4721 26.624 51.1147 26.624C52.3094 26.624 53.2907 26.3573 54.0588 25.824C54.8481 25.2907 55.2428 24.5973 55.2428 23.744C55.2428 23.0613 55.0294 22.496 54.6028 22.048C54.1974 21.6 53.5361 21.216 52.6188 20.896C51.7228 20.576 50.4641 20.2667 48.8428 19.968C45.9201 19.4133 43.7334 18.4853 42.2827 17.184C40.8321 15.8827 40.1068 14.048 40.1068 11.68C40.1068 10.144 40.5654 8.81066 41.4827 7.67999C42.4214 6.54932 43.6908 5.68532 45.2907 5.08799C46.8907 4.46932 48.6828 4.15999 50.6668 4.15999Z" fill="#151515"/>
<path d="M85.616 9.95199H77.136V30.88H71.312V9.95199H62.832V4.79999H85.616V9.95199Z" fill="#151515"/>
<path d="M100.482 31.52C97.8153 31.52 95.4047 30.9227 93.25 29.728C91.1167 28.5547 89.442 26.9333 88.226 24.864C87.01 22.7733 86.402 20.4267 86.402 17.824C86.402 15.2213 87.01 12.8853 88.226 10.816C89.442 8.72532 91.1167 7.09332 93.25 5.91999C95.4047 4.72532 97.8153 4.12799 100.482 4.12799C103.149 4.12799 105.549 4.72532 107.682 5.91999C109.837 7.09332 111.522 8.72532 112.738 10.816C113.954 12.8853 114.562 15.2213 114.562 17.824C114.562 20.4267 113.954 22.7733 112.738 24.864C111.522 26.9333 109.837 28.5547 107.682 29.728C105.549 30.9227 103.149 31.52 100.482 31.52ZM100.482 26.272C102.039 26.272 103.447 25.9093 104.706 25.184C105.965 24.4587 106.946 23.456 107.65 22.176C108.375 20.8747 108.738 19.424 108.738 17.824C108.738 16.2027 108.375 14.752 107.65 13.472C106.946 12.192 105.965 11.1893 104.706 10.464C103.447 9.73866 102.039 9.37599 100.482 9.37599C98.9247 9.37599 97.5167 9.73866 96.258 10.464C94.9993 11.1893 94.0073 12.192 93.282 13.472C92.578 14.752 92.226 16.2027 92.226 17.824C92.226 19.424 92.578 20.8747 93.282 22.176C94.0073 23.456 94.9993 24.4587 96.258 25.184C97.5167 25.9093 98.9247 26.272 100.482 26.272Z" fill="#151515"/>
<path d="M133.543 30.88L128.487 22.656H123.847V30.88H118.023V4.79999H128.519C130.695 4.79999 132.572 5.17332 134.151 5.91999C135.729 6.64532 136.935 7.67999 137.767 9.02399C138.599 10.368 139.015 11.936 139.015 13.728C139.015 15.52 138.599 17.088 137.767 18.432C136.956 19.7547 135.783 20.7787 134.247 21.504L140.295 30.88H133.543ZM123.847 17.504H128.263C129.82 17.504 131.025 17.184 131.879 16.544C132.753 15.8827 133.191 14.944 133.191 13.728C133.191 12.512 132.753 11.584 131.879 10.944C131.025 10.2827 129.82 9.95199 128.263 9.95199H123.847V17.504Z" fill="#151515"/>
<path d="M155 22.688V30.88H149.176V22.688L139.416 4.79999H146.072L152.344 17.12L158.584 4.79999H164.76L155 22.688Z" fill="#151515"/>
</svg>
