<svg width="80" height="32" viewBox="0 0 80 32" fill="none" xmlns="http://www.w3.org/2000/svg">
<g clip-path="url(#clip0_78_4743)">
<path d="M80 6.60528C79.9803 6.218 79.82 5.84978 79.5474 5.56519C79.4033 5.39313 79.2196 5.25588 79.011 5.1643C78.8024 5.07273 78.5747 5.02935 78.3457 5.03762H75.0448C74.9413 5.03831 74.8391 5.06016 74.745 5.10173C74.6509 5.1433 74.5669 5.20365 74.4986 5.2788C74.4239 5.34949 74.3647 5.43395 74.3245 5.52717C74.2843 5.62039 74.2639 5.72047 74.2645 5.82145C74.2587 6.04415 74.3426 6.26032 74.4986 6.42439C74.5927 6.50792 74.7037 6.57179 74.8245 6.61199C74.9454 6.6522 75.0735 6.66787 75.2009 6.65804C75.3952 6.65889 75.5879 6.69203 75.7706 6.75601C75.9562 6.80505 76.1308 6.88682 76.2856 6.9972C76.4233 7.10551 76.5442 7.23242 76.6445 7.37404C76.744 7.50935 76.8033 7.6683 76.8162 7.83378C76.8633 8.02659 76.8895 8.22361 76.8942 8.42165C76.8942 8.63269 76.8942 8.85879 76.8942 9.09996V26.7361H80.0156L80 6.60528Z" fill="white"/>
<path d="M72.1888 13.4563C72.1704 13.0688 72.01 12.7001 71.7362 12.4163C71.5929 12.2452 71.4105 12.1086 71.2034 12.0171C70.9962 11.9255 70.77 11.8816 70.5423 11.8887H67.3585C67.2573 11.8896 67.1575 11.9116 67.0659 11.9532C66.9743 11.9948 66.8931 12.0551 66.8279 12.1299C66.6907 12.28 66.6133 12.4723 66.6094 12.6725C66.6063 12.8967 66.6835 13.115 66.8279 13.2905C66.9145 13.3811 67.0214 13.4513 67.1404 13.4957C67.2595 13.5401 67.3875 13.5576 67.5146 13.5468C67.6945 13.5443 67.8737 13.5697 68.0452 13.6222C68.2114 13.6761 68.369 13.7522 68.5134 13.8483C68.6493 13.9585 68.77 14.0851 68.8724 14.2251C68.9686 14.3648 69.0276 14.5253 69.0441 14.6924C69.0874 14.8858 69.1135 15.0825 69.1221 15.2803C69.1221 15.4913 69.1221 15.7249 69.1221 15.9887V19.1768C69.1197 19.8216 69.0144 20.4622 68.81 21.0761C68.6111 21.6956 68.3165 22.2826 67.936 22.8171C67.5696 23.3323 67.0967 23.7686 66.547 24.0983C65.9927 24.4322 65.3507 24.6049 64.6976 24.5958C64.158 24.6192 63.6211 24.5103 63.1369 24.2792C62.776 24.0887 62.4703 23.8141 62.2473 23.4803C62.0426 23.1369 61.9101 22.7578 61.8572 22.3649C61.8076 21.9647 61.7816 21.562 61.7791 21.159V13.4563C61.7608 13.0688 61.6004 12.7001 61.3266 12.4163C61.1832 12.2452 61.0009 12.1086 60.7937 12.0171C60.5866 11.9255 60.3603 11.8816 60.1326 11.8887H56.9567C56.8552 11.888 56.7548 11.9093 56.663 11.9511C56.5712 11.9928 56.4902 12.0539 56.426 12.1299C56.2858 12.2782 56.2079 12.4717 56.2075 12.6725C56.201 12.8972 56.2786 13.1166 56.426 13.2905C56.5091 13.3834 56.6143 13.4553 56.7326 13.4999C56.8509 13.5446 56.9787 13.5607 57.1049 13.5468C57.2849 13.5443 57.464 13.5697 57.6356 13.6222C57.8031 13.6729 57.9612 13.7493 58.1038 13.8483C58.2397 13.9585 58.3603 14.0851 58.4627 14.2251C58.559 14.3648 58.6179 14.5253 58.6344 14.6924C58.6777 14.8858 58.7038 15.0825 58.7124 15.2803C58.7124 15.4913 58.7124 15.7249 58.7124 15.9887V21.159C58.5831 22.7244 59.0802 24.2782 60.1014 25.5002C60.6214 26.0178 61.2512 26.4205 61.9476 26.6807C62.644 26.9409 63.3905 27.0524 64.1357 27.0076C64.8199 27.0191 65.5018 26.9275 66.1568 26.7362C66.6767 26.5854 67.1709 26.3619 67.6238 26.073C67.9794 25.8495 68.3 25.5779 68.5758 25.2665C68.7806 25.0314 68.9634 24.7792 69.1221 24.5129V26.7061H72.1732L72.1888 13.4563Z" fill="white"/>
<path d="M54.6703 16.1546C54.3078 15.2415 53.75 14.4124 53.0334 13.7215C52.3167 13.0306 51.4573 12.4934 50.5111 12.145C49.5177 11.7664 48.4577 11.577 47.3898 11.5873C46.2657 11.5709 45.1509 11.7868 44.1202 12.2204C43.1982 12.6173 42.3697 13.1918 41.6855 13.9086C41.0005 14.6273 40.47 15.4701 40.1249 16.3883C39.7691 17.356 39.5896 18.376 39.5942 19.403C39.5732 20.5315 39.7909 21.6522 40.2341 22.6966C40.6303 23.6044 41.2207 24.4211 41.9664 25.0933C42.6764 25.7365 43.5195 26.2271 44.4401 26.5328C45.3979 26.8568 46.4061 27.0199 47.421 27.0152C48.4865 27.0297 49.5453 26.8508 50.5423 26.4876C51.4675 26.1633 52.3088 25.649 53.0082 24.9802C53.7259 24.2936 54.2915 23.473 54.6703 22.5684C55.09 21.5552 55.2969 20.4715 55.279 19.3804C55.2992 18.2768 55.0923 17.1803 54.6703 16.1546ZM51.6348 21.5208C51.4662 22.1669 51.1809 22.7793 50.7921 23.3297C50.4298 23.8375 49.9587 24.2641 49.4108 24.5808C48.8255 24.899 48.1628 25.0603 47.4912 25.0481C46.7811 25.0665 46.0778 24.9109 45.4467 24.5959C44.8822 24.2964 44.3984 23.873 44.0343 23.3598C43.6444 22.8119 43.3638 22.1984 43.2072 21.551C43.0256 20.8435 42.9364 20.1168 42.9419 19.3879C42.934 18.6266 43.0231 17.8672 43.2072 17.1269C43.3567 16.4683 43.6206 15.8388 43.9875 15.2653C44.3473 14.7514 44.8186 14.3193 45.3687 13.9991C45.9702 13.6635 46.6565 13.4965 47.3508 13.5167C48.054 13.5008 48.748 13.673 49.3562 14.0142C49.9266 14.3415 50.4122 14.79 50.7764 15.3256C51.1612 15.8918 51.446 16.5158 51.6192 17.1721C51.8081 17.876 51.9025 18.6005 51.9001 19.3276C51.9122 20.0668 51.823 20.8043 51.6348 21.5208Z" fill="white"/>
<path d="M29.1612 26.6986H32.2435V19.3577C32.2435 17.4283 32.7637 16.0943 33.8041 15.3556C34.8446 14.617 36.4235 14.396 38.5408 14.6924V11.6777H36.824C36.1692 11.6656 35.518 11.773 34.9044 11.9942C34.4023 12.1862 33.9276 12.4395 33.492 12.7479C33.1457 12.9863 32.8358 13.2705 32.5712 13.592C32.4123 13.7687 32.2904 13.9735 32.2123 14.195V13.1097C32.1502 12.8176 31.9913 12.553 31.7597 12.356C31.6071 12.1968 31.4208 12.0713 31.2134 11.9881C31.006 11.9048 30.7824 11.8658 30.5579 11.8736H27.2571C27.1536 11.8743 27.0514 11.8962 26.9573 11.9378C26.8631 11.9793 26.7792 12.0397 26.7109 12.1148C26.5636 12.26 26.4798 12.4543 26.4768 12.6575C26.473 12.8889 26.5562 13.1138 26.7109 13.2906C26.7987 13.3846 26.9077 13.4579 27.0294 13.505C27.1512 13.552 27.2825 13.5715 27.4132 13.5619C27.6083 13.5614 27.8026 13.5868 27.9907 13.6373C28.1701 13.6815 28.3431 13.7474 28.5057 13.8332C28.6397 13.9453 28.7601 14.0717 28.8646 14.21C28.9609 14.3498 29.0199 14.5103 29.0363 14.6773C29.0758 14.8714 29.1019 15.0678 29.1143 15.2652C29.1143 15.4762 29.1143 15.7099 29.1143 15.9737L29.1612 26.6986Z" fill="white"/>
<path d="M20.0625 7.35897C20.0615 7.63065 20.1177 7.89969 20.2277 8.14974C20.3377 8.39979 20.4992 8.62564 20.7023 8.81357C20.9027 9.00977 21.1414 9.16557 21.4047 9.2719C21.6679 9.37824 21.9504 9.433 22.2357 9.433C22.521 9.433 22.8035 9.37824 23.0667 9.2719C23.33 9.16557 23.5687 9.00977 23.769 8.81357C23.9773 8.62864 24.1431 8.40371 24.256 8.1532C24.3689 7.9027 24.4263 7.63217 24.4245 7.35897C24.4029 6.81005 24.1659 6.28963 23.7616 5.90331C23.3573 5.51699 22.8159 5.29372 22.2474 5.27881C21.6757 5.28637 21.1292 5.50703 20.722 5.89468C20.3148 6.28234 20.0785 6.80698 20.0625 7.35897Z" fill="white"/>
<path d="M24.128 26.6984V13.4562C24.1091 13.0702 23.9519 12.7025 23.6832 12.4162C23.5379 12.2454 23.354 12.1091 23.1457 12.0177C22.9374 11.9262 22.7102 11.882 22.4815 11.8886H19.3602C19.1318 11.8967 18.9136 11.9821 18.7437 12.1298C18.659 12.1958 18.5896 12.2782 18.5399 12.3716C18.4902 12.4651 18.4613 12.5675 18.455 12.6724C18.4512 12.9038 18.5343 13.1287 18.689 13.3055C18.7761 13.4004 18.885 13.4744 19.0069 13.5215C19.1289 13.5686 19.2605 13.5876 19.3913 13.5768C19.5849 13.5786 19.777 13.6091 19.961 13.6673C20.1362 13.7178 20.3082 13.7782 20.476 13.8482C20.6146 13.9287 20.7328 14.0382 20.8219 14.1686C20.911 14.2991 20.9688 14.4471 20.9911 14.6018C21.0546 15.122 21.0807 15.6458 21.0691 16.1695V26.6683L24.128 26.6984Z" fill="white"/>
<path d="M1.08469 7.07265C1.42704 7.13526 1.73609 7.31116 1.95867 7.57008C2.23178 7.86402 2.48929 8.15796 2.739 8.45944C4.63782 11.2028 6.53923 13.9412 8.44325 16.6746V26.6986H11.6426V16.6746L18.6032 6.60537C18.6032 6.55261 18.65 6.49232 18.6813 6.43203C18.7296 6.29655 18.7456 6.15227 18.7281 6.00997C18.6922 5.85194 18.6047 5.70923 18.4784 5.60297C18.2497 5.45223 17.9738 5.38297 17.698 5.40702H16.3246L10.3083 14.0442L4.45575 5.40702H0.83498C0.628022 5.40702 0.429552 5.48642 0.283211 5.62777C0.13687 5.76911 0.0546447 5.96081 0.0546447 6.1607C0.0515748 6.39334 0.13774 6.61885 0.296547 6.79379C0.512103 6.98158 0.794549 7.08151 1.08469 7.07265Z" fill="white"/>
</g>
<defs>
<clipPath id="clip0_78_4743">
<rect width="80" height="22" fill="white" transform="translate(0 5)"/>
</clipPath>
</defs>
</svg>
